%FSLAX34Y34*%
%MOMM*%
%LNOUTLINE*%
G71*
G01*
%ADD10C, 0.00*%
%ADD11C, 0.06*%
%ADD12C, 0.00*%
%LPD*%
G54D10*
X0Y0D02*
X530000Y0D01*
X530000Y-320000D01*
X0Y-320000D01*
X0Y0D01*
G54D11*
X198438Y-243562D02*
X199771Y-246062D01*
X201104Y-243562D01*
G54D11*
X203993Y-243729D02*
X203326Y-243562D01*
X202660Y-243729D01*
X202326Y-244285D01*
X202326Y-245396D01*
X202660Y-245951D01*
X203326Y-246062D01*
X203993Y-245951D01*
G54D11*
X206882Y-243729D02*
X206216Y-243562D01*
X205549Y-243729D01*
X205216Y-244285D01*
X205216Y-245396D01*
X205549Y-245951D01*
X206216Y-246062D01*
X206882Y-245951D01*
G54D11*
X201216Y-275868D02*
X201882Y-276146D01*
X202349Y-276146D01*
X203016Y-275868D01*
X203216Y-275312D01*
X203216Y-272534D01*
G54D11*
X203216Y-273257D02*
X202882Y-272701D01*
X202216Y-272534D01*
X201549Y-272701D01*
X201216Y-273257D01*
X201216Y-274368D01*
X201549Y-274923D01*
X202216Y-275034D01*
X202882Y-274923D01*
X203216Y-274368D01*
G54D11*
X204438Y-275034D02*
X204438Y-272534D01*
G54D11*
X204438Y-273090D02*
X204771Y-272701D01*
X205438Y-272534D01*
X206104Y-272701D01*
X206438Y-273090D01*
X206438Y-275034D01*
G54D11*
X209660Y-275034D02*
X209660Y-270590D01*
G54D11*
X209660Y-273257D02*
X209326Y-272701D01*
X208660Y-272534D01*
X207993Y-272701D01*
X207660Y-273257D01*
X207660Y-274368D01*
X207993Y-274923D01*
X208660Y-275034D01*
X209326Y-274923D01*
X209660Y-274368D01*
G54D11*
X82962Y-290909D02*
X82962Y-286465D01*
G54D11*
X82962Y-289132D02*
X82629Y-288576D01*
X81962Y-288409D01*
X81296Y-288576D01*
X80962Y-289132D01*
X80962Y-290243D01*
X81296Y-290798D01*
X81962Y-290909D01*
X82629Y-290798D01*
X82962Y-290243D01*
G54D11*
X84184Y-288965D02*
X86851Y-288965D01*
G54D11*
X85518Y-287854D02*
X85518Y-290076D01*
G54D11*
X66294Y-293291D02*
X66294Y-288846D01*
G54D11*
X66294Y-291513D02*
X65960Y-290957D01*
X65294Y-290791D01*
X64627Y-290957D01*
X64294Y-291513D01*
X64294Y-292624D01*
X64627Y-293180D01*
X65294Y-293291D01*
X65960Y-293180D01*
X66294Y-292624D01*
G54D11*
X67516Y-291346D02*
X70182Y-291346D01*
G54D11*
X137716Y-280630D02*
X138382Y-280908D01*
X138849Y-280908D01*
X139516Y-280630D01*
X139716Y-280075D01*
X139716Y-277297D01*
G54D11*
X139716Y-278019D02*
X139382Y-277464D01*
X138716Y-277297D01*
X138049Y-277464D01*
X137716Y-278019D01*
X137716Y-279130D01*
X138049Y-279686D01*
X138716Y-279797D01*
X139382Y-279686D01*
X139716Y-279130D01*
G54D11*
X140938Y-279797D02*
X140938Y-277297D01*
G54D11*
X140938Y-277852D02*
X141271Y-277464D01*
X141938Y-277297D01*
X142604Y-277464D01*
X142938Y-277852D01*
X142938Y-279797D01*
G54D11*
X146160Y-279797D02*
X146160Y-275352D01*
G54D11*
X146160Y-278019D02*
X145826Y-277464D01*
X145160Y-277297D01*
X144493Y-277464D01*
X144160Y-278019D01*
X144160Y-279130D01*
X144493Y-279686D01*
X145160Y-279797D01*
X145826Y-279686D01*
X146160Y-279130D01*
G54D11*
X321072Y-119738D02*
X322405Y-122238D01*
X323739Y-119738D01*
G54D11*
X326628Y-119904D02*
X325961Y-119738D01*
X325294Y-119904D01*
X324961Y-120460D01*
X324961Y-121571D01*
X325294Y-122126D01*
X325961Y-122238D01*
X326628Y-122126D01*
G54D11*
X329517Y-119904D02*
X328850Y-119738D01*
X328183Y-119904D01*
X327850Y-120460D01*
X327850Y-121571D01*
X328183Y-122126D01*
X328850Y-122238D01*
X329517Y-122126D01*
G54D11*
X325453Y-144066D02*
X325453Y-139621D01*
G54D11*
X325453Y-142288D02*
X325120Y-141732D01*
X324453Y-141566D01*
X323786Y-141732D01*
X323453Y-142288D01*
X323453Y-143399D01*
X323786Y-143954D01*
X324453Y-144066D01*
X325120Y-143954D01*
X325453Y-143399D01*
G54D11*
X326675Y-142121D02*
X329342Y-142121D01*
G54D11*
X327438Y-169069D02*
X327438Y-164624D01*
G54D11*
X327438Y-167291D02*
X327104Y-166735D01*
X326438Y-166569D01*
X325771Y-166735D01*
X325438Y-167291D01*
X325438Y-168402D01*
X325771Y-168958D01*
X326438Y-169069D01*
X327104Y-168958D01*
X327438Y-168402D01*
G54D11*
X328660Y-167124D02*
X331326Y-167124D01*
G54D11*
X329993Y-166013D02*
X329993Y-168235D01*
G54D11*
X325438Y-191730D02*
X326104Y-192008D01*
X326571Y-192008D01*
X327238Y-191730D01*
X327438Y-191175D01*
X327438Y-188397D01*
G54D11*
X327438Y-189119D02*
X327104Y-188564D01*
X326438Y-188397D01*
X325771Y-188564D01*
X325438Y-189119D01*
X325438Y-190230D01*
X325771Y-190786D01*
X326438Y-190897D01*
X327104Y-190786D01*
X327438Y-190230D01*
G54D11*
X328660Y-190897D02*
X328660Y-188397D01*
G54D11*
X328660Y-188952D02*
X328993Y-188564D01*
X329660Y-188397D01*
X330326Y-188564D01*
X330660Y-188952D01*
X330660Y-190897D01*
G54D11*
X333882Y-190897D02*
X333882Y-186452D01*
G54D11*
X333882Y-189119D02*
X333548Y-188564D01*
X332882Y-188397D01*
X332215Y-188564D01*
X331882Y-189119D01*
X331882Y-190230D01*
X332215Y-190786D01*
X332882Y-190897D01*
X333548Y-190786D01*
X333882Y-190230D01*
G54D11*
X223377Y-90091D02*
X226377Y-90091D01*
G54D11*
X223044Y-91480D02*
X226044Y-91480D01*
G54D11*
X223710Y-92313D02*
X224377Y-89258D01*
G54D11*
X225044Y-92313D02*
X225710Y-89258D01*
G54D11*
X227599Y-92869D02*
X227599Y-90369D01*
G54D11*
X227599Y-90924D02*
X228265Y-90369D01*
X228932Y-90369D01*
G54D11*
X232154Y-90369D02*
X232154Y-92869D01*
G54D11*
X232154Y-92313D02*
X231820Y-92758D01*
X231154Y-92869D01*
X230487Y-92758D01*
X230154Y-92313D01*
X230154Y-90369D01*
G54D11*
X233376Y-92869D02*
X233376Y-90369D01*
G54D11*
X233376Y-90924D02*
X233709Y-90535D01*
X234376Y-90369D01*
X235042Y-90535D01*
X235376Y-90924D01*
X235376Y-92869D01*
G54D11*
X220266Y-42902D02*
X220932Y-43180D01*
X221399Y-43180D01*
X222066Y-42902D01*
X222266Y-42347D01*
X222266Y-39569D01*
G54D11*
X222266Y-40291D02*
X221932Y-39735D01*
X221266Y-39569D01*
X220599Y-39735D01*
X220266Y-40291D01*
X220266Y-41402D01*
X220599Y-41958D01*
X221266Y-42069D01*
X221932Y-41958D01*
X222266Y-41402D01*
G54D11*
X223488Y-39569D02*
X223488Y-43180D01*
G54D11*
X223488Y-41235D02*
X223821Y-41958D01*
X224488Y-42069D01*
X225154Y-41958D01*
X225488Y-41402D01*
X225488Y-40291D01*
X225154Y-39735D01*
X224488Y-39569D01*
X223821Y-39735D01*
X223488Y-40402D01*
G54D11*
X226710Y-42069D02*
X226710Y-39569D01*
G54D11*
X226710Y-38735D02*
X226710Y-38735D01*
G54D11*
X229932Y-41402D02*
X229932Y-40291D01*
X229598Y-39735D01*
X228932Y-39569D01*
X228265Y-39735D01*
X227932Y-40291D01*
X227932Y-41402D01*
X228265Y-41958D01*
X228932Y-42069D01*
X229598Y-41958D01*
X229932Y-41402D01*
G54D11*
X233820Y-42069D02*
X231154Y-42069D01*
X231154Y-41791D01*
X231487Y-41235D01*
X233487Y-39569D01*
X233820Y-39013D01*
X233820Y-38458D01*
X233487Y-37902D01*
X232820Y-37624D01*
X232154Y-37624D01*
X231487Y-37902D01*
X231154Y-38458D01*
G54D11*
X235043Y-39291D02*
X236709Y-37624D01*
X236709Y-42069D01*
G54D12*
G75*
G01X301225Y-274638D02*
G03X301225Y-274638I-25000J0D01*
G01*
G54D12*
G75*
G01X301225Y-45244D02*
G03X301225Y-45244I-25000J0D01*
G01*
G54D11*
X192484Y-43696D02*
X193151Y-43974D01*
X193618Y-43974D01*
X194284Y-43696D01*
X194484Y-43140D01*
X194484Y-40362D01*
G54D11*
X194484Y-41085D02*
X194151Y-40529D01*
X193484Y-40362D01*
X192818Y-40529D01*
X192484Y-41085D01*
X192484Y-42196D01*
X192818Y-42751D01*
X193484Y-42862D01*
X194151Y-42751D01*
X194484Y-42196D01*
G54D11*
X195706Y-40362D02*
X195706Y-43974D01*
G54D11*
X195706Y-42029D02*
X196040Y-42751D01*
X196706Y-42862D01*
X197373Y-42751D01*
X197706Y-42196D01*
X197706Y-41085D01*
X197373Y-40529D01*
X196706Y-40362D01*
X196040Y-40529D01*
X195706Y-41196D01*
G54D11*
X198928Y-42862D02*
X198928Y-40362D01*
G54D11*
X198928Y-39529D02*
X198928Y-39529D01*
G54D11*
X202150Y-42196D02*
X202150Y-41085D01*
X201817Y-40529D01*
X201150Y-40362D01*
X200484Y-40529D01*
X200150Y-41085D01*
X200150Y-42196D01*
X200484Y-42751D01*
X201150Y-42862D01*
X201817Y-42751D01*
X202150Y-42196D01*
G54D11*
X206039Y-42862D02*
X203372Y-42862D01*
X203372Y-42585D01*
X203706Y-42029D01*
X205706Y-40362D01*
X206039Y-39807D01*
X206039Y-39251D01*
X205706Y-38696D01*
X205039Y-38418D01*
X204372Y-38418D01*
X203706Y-38696D01*
X203372Y-39251D01*
G54D11*
X209928Y-39251D02*
X209928Y-42029D01*
X209595Y-42585D01*
X208928Y-42862D01*
X208261Y-42862D01*
X207595Y-42585D01*
X207261Y-42029D01*
X207261Y-39251D01*
X207595Y-38696D01*
X208261Y-38418D01*
X208928Y-38418D01*
X209595Y-38696D01*
X209928Y-39251D01*
G54D11*
X166291Y-43299D02*
X166957Y-43577D01*
X167424Y-43577D01*
X168091Y-43299D01*
X168291Y-42743D01*
X168291Y-39966D01*
G54D11*
X168291Y-40688D02*
X167957Y-40132D01*
X167291Y-39966D01*
X166624Y-40132D01*
X166291Y-40688D01*
X166291Y-41799D01*
X166624Y-42354D01*
X167291Y-42466D01*
X167957Y-42354D01*
X168291Y-41799D01*
G54D11*
X169513Y-39966D02*
X169513Y-43577D01*
G54D11*
X169513Y-41632D02*
X169846Y-42354D01*
X170513Y-42466D01*
X171179Y-42354D01*
X171513Y-41799D01*
X171513Y-40688D01*
X171179Y-40132D01*
X170513Y-39966D01*
X169846Y-40132D01*
X169513Y-40799D01*
G54D11*
X172735Y-42466D02*
X172735Y-39966D01*
G54D11*
X172735Y-39132D02*
X172735Y-39132D01*
G54D11*
X175957Y-41799D02*
X175957Y-40688D01*
X175623Y-40132D01*
X174957Y-39966D01*
X174290Y-40132D01*
X173957Y-40688D01*
X173957Y-41799D01*
X174290Y-42354D01*
X174957Y-42466D01*
X175623Y-42354D01*
X175957Y-41799D01*
G54D11*
X177179Y-39688D02*
X178845Y-38021D01*
X178845Y-42466D01*
G54D11*
X182734Y-38854D02*
X182401Y-38299D01*
X181734Y-38021D01*
X181068Y-38021D01*
X180401Y-38299D01*
X180068Y-38854D01*
X180068Y-40243D01*
X180068Y-40521D01*
X181068Y-39966D01*
X181734Y-39966D01*
X182401Y-40243D01*
X182734Y-40799D01*
X182734Y-41632D01*
X182401Y-42188D01*
X181734Y-42466D01*
X181068Y-42466D01*
X180401Y-42188D01*
X180068Y-41632D01*
X180068Y-40243D01*
G54D11*
X192881Y-68699D02*
X193548Y-68977D01*
X194015Y-68977D01*
X194681Y-68699D01*
X194881Y-68143D01*
X194881Y-65366D01*
G54D11*
X194881Y-66088D02*
X194548Y-65532D01*
X193881Y-65366D01*
X193215Y-65532D01*
X192881Y-66088D01*
X192881Y-67199D01*
X193215Y-67754D01*
X193881Y-67866D01*
X194548Y-67754D01*
X194881Y-67199D01*
G54D11*
X196103Y-65366D02*
X196103Y-68977D01*
G54D11*
X196103Y-67032D02*
X196437Y-67754D01*
X197103Y-67866D01*
X197770Y-67754D01*
X198103Y-67199D01*
X198103Y-66088D01*
X197770Y-65532D01*
X197103Y-65366D01*
X196437Y-65532D01*
X196103Y-66199D01*
G54D11*
X199325Y-67866D02*
X199325Y-65366D01*
G54D11*
X199325Y-64532D02*
X199325Y-64532D01*
G54D11*
X202547Y-67199D02*
X202547Y-66088D01*
X202214Y-65532D01*
X201547Y-65366D01*
X200881Y-65532D01*
X200547Y-66088D01*
X200547Y-67199D01*
X200881Y-67754D01*
X201547Y-67866D01*
X202214Y-67754D01*
X202547Y-67199D01*
G54D11*
X206436Y-67866D02*
X203769Y-67866D01*
X203769Y-67588D01*
X204103Y-67032D01*
X206103Y-65366D01*
X206436Y-64810D01*
X206436Y-64254D01*
X206103Y-63699D01*
X205436Y-63421D01*
X204769Y-63421D01*
X204103Y-63699D01*
X203769Y-64254D01*
G54D11*
X210325Y-64254D02*
X209992Y-63699D01*
X209325Y-63421D01*
X208658Y-63421D01*
X207992Y-63699D01*
X207658Y-64254D01*
X207658Y-65643D01*
X207658Y-65921D01*
X208658Y-65366D01*
X209325Y-65366D01*
X209992Y-65643D01*
X210325Y-66199D01*
X210325Y-67032D01*
X209992Y-67588D01*
X209325Y-67866D01*
X208658Y-67866D01*
X207992Y-67588D01*
X207658Y-67032D01*
X207658Y-65643D01*
G54D11*
X167878Y-68699D02*
X168545Y-68977D01*
X169011Y-68977D01*
X169678Y-68699D01*
X169878Y-68143D01*
X169878Y-65366D01*
G54D11*
X169878Y-66088D02*
X169545Y-65532D01*
X168878Y-65366D01*
X168211Y-65532D01*
X167878Y-66088D01*
X167878Y-67199D01*
X168211Y-67754D01*
X168878Y-67866D01*
X169545Y-67754D01*
X169878Y-67199D01*
G54D11*
X171100Y-65366D02*
X171100Y-68977D01*
G54D11*
X171100Y-67032D02*
X171433Y-67754D01*
X172100Y-67866D01*
X172767Y-67754D01*
X173100Y-67199D01*
X173100Y-66088D01*
X172767Y-65532D01*
X172100Y-65366D01*
X171433Y-65532D01*
X171100Y-66199D01*
G54D11*
X174322Y-67866D02*
X174322Y-65366D01*
G54D11*
X174322Y-64532D02*
X174322Y-64532D01*
G54D11*
X177544Y-67199D02*
X177544Y-66088D01*
X177211Y-65532D01*
X176544Y-65366D01*
X175877Y-65532D01*
X175544Y-66088D01*
X175544Y-67199D01*
X175877Y-67754D01*
X176544Y-67866D01*
X177211Y-67754D01*
X177544Y-67199D01*
G54D11*
X178766Y-65088D02*
X180433Y-63421D01*
X180433Y-67866D01*
G54D11*
X181655Y-67032D02*
X181988Y-67588D01*
X182655Y-67866D01*
X183322Y-67866D01*
X183988Y-67588D01*
X184322Y-67032D01*
X184322Y-65643D01*
X184322Y-65366D01*
X183322Y-65921D01*
X182655Y-65921D01*
X181988Y-65643D01*
X181655Y-65088D01*
X181655Y-64254D01*
X181988Y-63699D01*
X182655Y-63421D01*
X183322Y-63421D01*
X183988Y-63699D01*
X184322Y-64254D01*
X184322Y-65643D01*
G54D11*
X142081Y-69493D02*
X142748Y-69770D01*
X143215Y-69770D01*
X143881Y-69493D01*
X144081Y-68937D01*
X144081Y-66159D01*
G54D11*
X144081Y-66882D02*
X143748Y-66326D01*
X143081Y-66159D01*
X142415Y-66326D01*
X142081Y-66882D01*
X142081Y-67993D01*
X142415Y-68548D01*
X143081Y-68659D01*
X143748Y-68548D01*
X144081Y-67993D01*
G54D11*
X145303Y-66159D02*
X145303Y-69770D01*
G54D11*
X145303Y-67826D02*
X145637Y-68548D01*
X146303Y-68659D01*
X146970Y-68548D01*
X147303Y-67993D01*
X147303Y-66882D01*
X146970Y-66326D01*
X146303Y-66159D01*
X145637Y-66326D01*
X145303Y-66993D01*
G54D11*
X148525Y-68659D02*
X148525Y-66159D01*
G54D11*
X148525Y-65326D02*
X148525Y-65326D01*
G54D11*
X151747Y-67993D02*
X151747Y-66882D01*
X151414Y-66326D01*
X150747Y-66159D01*
X150081Y-66326D01*
X149747Y-66882D01*
X149747Y-67993D01*
X150081Y-68548D01*
X150747Y-68659D01*
X151414Y-68548D01*
X151747Y-67993D01*
G54D11*
X152969Y-65882D02*
X154636Y-64215D01*
X154636Y-68659D01*
G54D11*
X155858Y-65048D02*
X156192Y-64493D01*
X156858Y-64215D01*
X157525Y-64215D01*
X158192Y-64493D01*
X158525Y-65048D01*
X158525Y-65604D01*
X158192Y-66159D01*
X157525Y-66437D01*
X158192Y-66715D01*
X158525Y-67270D01*
X158525Y-67826D01*
X158192Y-68382D01*
X157525Y-68659D01*
X156858Y-68659D01*
X156192Y-68382D01*
X155858Y-67826D01*
G54D11*
X220345Y-22670D02*
X219678Y-22503D01*
X219011Y-22670D01*
X218678Y-23225D01*
X218678Y-24336D01*
X219011Y-24892D01*
X219678Y-25003D01*
X220345Y-24892D01*
G54D11*
X221567Y-25003D02*
X221567Y-20559D01*
G54D11*
X222789Y-25003D02*
X222789Y-20559D01*
G54D11*
X223789Y-23336D02*
X224789Y-25003D01*
G54D11*
X222789Y-23892D02*
X224789Y-22503D01*
G54D11*
X194072Y-25400D02*
X194072Y-22900D01*
G54D11*
X194072Y-23344D02*
X194739Y-22900D01*
X195405Y-23067D01*
X195739Y-23456D01*
X195739Y-25400D01*
G54D11*
X195739Y-23344D02*
X196405Y-22900D01*
X197072Y-23067D01*
X197405Y-23456D01*
X197405Y-25400D01*
G54D11*
X200627Y-24733D02*
X200627Y-23622D01*
X200294Y-23067D01*
X199627Y-22900D01*
X198960Y-23067D01*
X198627Y-23622D01*
X198627Y-24733D01*
X198960Y-25289D01*
X199627Y-25400D01*
X200294Y-25289D01*
X200627Y-24733D01*
G54D11*
X201849Y-25122D02*
X202516Y-25400D01*
X203182Y-25400D01*
X203849Y-25122D01*
X203849Y-24567D01*
X203516Y-24289D01*
X202182Y-24011D01*
X201849Y-23733D01*
X201849Y-23178D01*
X202516Y-22900D01*
X203182Y-22900D01*
X203849Y-23178D01*
G54D11*
X205071Y-25400D02*
X205071Y-22900D01*
G54D11*
X205071Y-22067D02*
X205071Y-22067D01*
G54D11*
X170656Y-51197D02*
X170656Y-48697D01*
G54D11*
X170656Y-49141D02*
X171323Y-48697D01*
X171990Y-48864D01*
X172323Y-49252D01*
X172323Y-51197D01*
G54D11*
X172323Y-49141D02*
X172990Y-48697D01*
X173656Y-48864D01*
X173990Y-49252D01*
X173990Y-51197D01*
G54D11*
X175211Y-51197D02*
X175211Y-48697D01*
G54D11*
X175211Y-47864D02*
X175211Y-47864D01*
G54D11*
X176433Y-50919D02*
X177100Y-51197D01*
X177767Y-51197D01*
X178433Y-50919D01*
X178433Y-50364D01*
X178100Y-50086D01*
X176767Y-49808D01*
X176433Y-49530D01*
X176433Y-48975D01*
X177100Y-48697D01*
X177767Y-48697D01*
X178433Y-48975D01*
G54D11*
X181655Y-50530D02*
X181655Y-49419D01*
X181322Y-48864D01*
X180655Y-48697D01*
X179989Y-48864D01*
X179655Y-49419D01*
X179655Y-50530D01*
X179989Y-51086D01*
X180655Y-51197D01*
X181322Y-51086D01*
X181655Y-50530D01*
G54D11*
X107553Y-144859D02*
X107553Y-142359D01*
G54D11*
X107553Y-142804D02*
X108220Y-142359D01*
X108886Y-142526D01*
X109220Y-142915D01*
X109220Y-144859D01*
G54D11*
X109220Y-142804D02*
X109886Y-142359D01*
X110553Y-142526D01*
X110886Y-142915D01*
X110886Y-144859D01*
G54D11*
X114108Y-144193D02*
X114108Y-143082D01*
X113775Y-142526D01*
X113108Y-142359D01*
X112441Y-142526D01*
X112108Y-143082D01*
X112108Y-144193D01*
X112441Y-144748D01*
X113108Y-144859D01*
X113775Y-144748D01*
X114108Y-144193D01*
G54D11*
X115330Y-144582D02*
X115997Y-144859D01*
X116663Y-144859D01*
X117330Y-144582D01*
X117330Y-144026D01*
X116997Y-143748D01*
X115663Y-143470D01*
X115330Y-143193D01*
X115330Y-142637D01*
X115997Y-142359D01*
X116663Y-142359D01*
X117330Y-142637D01*
G54D11*
X118552Y-144859D02*
X118552Y-142359D01*
G54D11*
X118552Y-141526D02*
X118552Y-141526D01*
G54D11*
X28283Y-144679D02*
X28283Y-142179D01*
G54D11*
X28283Y-142624D02*
X28950Y-142179D01*
X29617Y-142346D01*
X29950Y-142735D01*
X29950Y-144679D01*
G54D11*
X29950Y-142624D02*
X30617Y-142179D01*
X31283Y-142346D01*
X31617Y-142735D01*
X31617Y-144679D01*
G54D11*
X32838Y-144679D02*
X32838Y-142179D01*
G54D11*
X32838Y-141346D02*
X32838Y-141346D01*
G54D11*
X34060Y-144402D02*
X34727Y-144679D01*
X35394Y-144679D01*
X36060Y-144402D01*
X36060Y-143846D01*
X35727Y-143568D01*
X34394Y-143291D01*
X34060Y-143013D01*
X34060Y-142457D01*
X34727Y-142179D01*
X35394Y-142179D01*
X36060Y-142457D01*
G54D11*
X39282Y-144013D02*
X39282Y-142902D01*
X38949Y-142346D01*
X38282Y-142179D01*
X37616Y-142346D01*
X37282Y-142902D01*
X37282Y-144013D01*
X37616Y-144568D01*
X38282Y-144679D01*
X38949Y-144568D01*
X39282Y-144013D01*
G54D11*
X21138Y-129138D02*
X20471Y-128971D01*
X19805Y-129138D01*
X19471Y-129694D01*
X19471Y-130805D01*
X19805Y-131360D01*
X20471Y-131471D01*
X21138Y-131360D01*
G54D11*
X22360Y-131471D02*
X22360Y-127027D01*
G54D11*
X23582Y-131471D02*
X23582Y-127027D01*
G54D11*
X24582Y-129805D02*
X25582Y-131471D01*
G54D11*
X23582Y-130360D02*
X25582Y-128971D01*
G54D11*
X110268Y-103982D02*
X113268Y-103982D01*
G54D11*
X109934Y-105370D02*
X112934Y-105370D01*
G54D11*
X110601Y-106204D02*
X111268Y-103148D01*
G54D11*
X111934Y-106204D02*
X112601Y-103148D01*
G54D11*
X114489Y-106759D02*
X114489Y-104259D01*
G54D11*
X114489Y-104815D02*
X115156Y-104259D01*
X115823Y-104259D01*
G54D11*
X119044Y-106482D02*
X118511Y-106759D01*
X117844Y-106759D01*
X117178Y-106482D01*
X117044Y-105926D01*
X117044Y-104982D01*
X117378Y-104426D01*
X118044Y-104259D01*
X118711Y-104426D01*
X119044Y-104815D01*
X119044Y-105370D01*
X117044Y-105370D01*
G54D11*
X120266Y-106482D02*
X120933Y-106759D01*
X121600Y-106759D01*
X122266Y-106482D01*
X122266Y-105926D01*
X121933Y-105648D01*
X120600Y-105370D01*
X120266Y-105093D01*
X120266Y-104537D01*
X120933Y-104259D01*
X121600Y-104259D01*
X122266Y-104537D01*
M02*
