%FSLAX34Y34*%
%MOMM*%
%LNCOPPER_TOP*%
G71*
G01*
%ADD10C, 0.00*%
%ADD11C, 0.15*%
%ADD12C, 3.10*%
%ADD13C, 3.00*%
%ADD14C, 1.60*%
%ADD15C, 2.30*%
%ADD16C, 2.70*%
%ADD17C, 1.20*%
%ADD18C, 2.60*%
%ADD19C, 1.10*%
%ADD20C, 2.10*%
%ADD21C, 2.15*%
%ADD22R, 1.70X1.70*%
%ADD23C, 1.90*%
%ADD24C, 0.90*%
%ADD25R, 1.40X1.20*%
%ADD26R, 1.20X1.40*%
%ADD27C, 0.50*%
%ADD28R, 2.20X1.60*%
%ADD29R, 1.81X2.40*%
%ADD30R, 2.40X1.81*%
%ADD31C, 0.49*%
%ADD32C, 0.57*%
%ADD33C, 2.50*%
%ADD34C, 2.00*%
%ADD35C, 1.00*%
%ADD36C, 1.70*%
%ADD37C, 1.70*%
%ADD38C, 0.60*%
%ADD39C, 1.80*%
%ADD40C, 1.50*%
%ADD41C, 1.15*%
%ADD42R, 1.10X1.10*%
%ADD43C, 1.30*%
%ADD44C, 0.30*%
%ADD45R, 0.80X0.60*%
%ADD46R, 0.60X0.80*%
%ADD47R, 1.60X1.00*%
%ADD48R, 1.01X1.60*%
%ADD49R, 1.60X1.01*%
%ADD50C, 0.40*%
%ADD51C, 0.70*%
%ADD52C, 0.00*%
%LPD*%
G54D10*
X0Y0D02*
X530000Y0D01*
X530000Y-320000D01*
X0Y-320000D01*
X0Y0D01*
G36*
X0Y0D02*
X530000Y0D01*
X530000Y-320000D01*
X0Y-320000D01*
X0Y0D01*
G37*
%LPC*%
G54D11*
X9922Y-9922D02*
X9922Y-309959D01*
G54D11*
X309959Y-9922D02*
X9922Y-9922D01*
G54D11*
X309959Y-309960D02*
X9922Y-309959D01*
G54D11*
X309959Y-89694D02*
X371078Y-89694D01*
G54D11*
X309959Y-230188D02*
X371078Y-230188D01*
G54D11*
X309959Y-9922D02*
X309959Y-89694D01*
G54D11*
X371078Y-89694D02*
X371078Y-230188D01*
G54D11*
X309959Y-230188D02*
X309959Y-309960D01*
X276225Y-274638D02*
G54D12*
D03*
X276225Y-45244D02*
G54D12*
D03*
X202410Y-279800D02*
G54D13*
D03*
X200025Y-250031D02*
G54D13*
D03*
X140100Y-287340D02*
G54D13*
D03*
X80169Y-289719D02*
G54D14*
D03*
X64691Y-291306D02*
G54D14*
D03*
X321072Y-126603D02*
G54D15*
D03*
X321072Y-149225D02*
G54D15*
D03*
X321072Y-171450D02*
G54D15*
D03*
X321070Y-194070D02*
G54D15*
D03*
X227012Y-32544D02*
G54D16*
D03*
X345281Y-137716D02*
G54D17*
D03*
X345281Y-182562D02*
G54D17*
D03*
X201612Y-32544D02*
G54D16*
D03*
G54D18*
X22750Y-268684D02*
X40750Y-268684D01*
G36*
X9750Y-232269D02*
X53750Y-232269D01*
X53750Y-258269D01*
X9750Y-258269D01*
X9750Y-232269D01*
G37*
X176212Y-32544D02*
G54D16*
D03*
X201612Y-57944D02*
G54D16*
D03*
X176212Y-57944D02*
G54D16*
D03*
X150812Y-57944D02*
G54D16*
D03*
G54D19*
X140097Y-287338D02*
X157559Y-287338D01*
X165100Y-279797D01*
X202406Y-279797D01*
G54D19*
X202406Y-279797D02*
X235347Y-279797D01*
X270669Y-244475D01*
X279400Y-244475D01*
X298847Y-225028D01*
X298847Y-194072D01*
G54D19*
X207169Y-187722D02*
X221059Y-187722D01*
X227409Y-194072D01*
X321072Y-194072D01*
X207170Y-187720D02*
G54D20*
D03*
X32147Y-71438D02*
G54D20*
D03*
X227012Y-83344D02*
G54D16*
D03*
G54D21*
X80169Y-283969D02*
X80169Y-295469D01*
G54D21*
X64691Y-285556D02*
X64691Y-297056D01*
X233362Y-146844D02*
G54D22*
D03*
X233362Y-165844D02*
G54D22*
D03*
X211162Y-156344D02*
G54D22*
D03*
X22598Y-134964D02*
G54D23*
D03*
X33314Y-147664D02*
G54D23*
D03*
X113482Y-147664D02*
G54D23*
D03*
X116681Y-109538D02*
G54D23*
D03*
G54D24*
X233362Y-165894D02*
X233363Y-146894D01*
X154781Y-115094D02*
G54D22*
D03*
X154781Y-134094D02*
G54D22*
D03*
X132581Y-124594D02*
G54D22*
D03*
X132581Y-93687D02*
G54D25*
D03*
X132581Y-109587D02*
G54D25*
D03*
G54D24*
X321072Y-126603D02*
X280051Y-126603D01*
X154781Y-147639D02*
G54D26*
D03*
X138882Y-147639D02*
G54D26*
D03*
X154769Y-157150D02*
G54D25*
D03*
X154769Y-173050D02*
G54D25*
D03*
G54D24*
X154781Y-147639D02*
X154781Y-157138D01*
X154769Y-157150D01*
G54D19*
X177403Y-205238D02*
X233362Y-205184D01*
X236141Y-202406D01*
X290459Y-202459D01*
X298847Y-194072D01*
X79375Y-56356D02*
G54D22*
D03*
X79375Y-75356D02*
G54D22*
D03*
X57175Y-65856D02*
G54D22*
D03*
G54D24*
X154781Y-134094D02*
X154781Y-147639D01*
X154793Y-147651D01*
G54D24*
X138882Y-147640D02*
X138894Y-138100D01*
X143657Y-133338D01*
X143657Y-126194D01*
X154781Y-115094D01*
G54D24*
X63476Y-88902D02*
X63488Y-79363D01*
X68250Y-74600D01*
X68250Y-67457D01*
X79375Y-56356D01*
X79375Y-88902D02*
G54D26*
D03*
X63476Y-88902D02*
G54D26*
D03*
G54D24*
X79375Y-75356D02*
X79375Y-88902D01*
X79387Y-88914D01*
X120253Y-56753D02*
G54D22*
D03*
X120253Y-75753D02*
G54D22*
D03*
X98053Y-66253D02*
G54D22*
D03*
G54D24*
X104354Y-89299D02*
X104366Y-79760D01*
X109129Y-74997D01*
X109129Y-67854D01*
X120253Y-56753D01*
X120253Y-89299D02*
G54D26*
D03*
X104354Y-89299D02*
G54D26*
D03*
G54D24*
X120253Y-75753D02*
X120253Y-89299D01*
X120265Y-89311D01*
G54D24*
X132581Y-124594D02*
X132581Y-109587D01*
X132556Y-109562D01*
X154775Y-85573D02*
G54D25*
D03*
X154775Y-101472D02*
G54D25*
D03*
G54D24*
X132581Y-93687D02*
X207987Y-93687D01*
X213122Y-98822D01*
X293291Y-98822D01*
X321072Y-126603D01*
G36*
X32248Y-88526D02*
X43633Y-99911D01*
X28077Y-115467D01*
X16692Y-104083D01*
X32248Y-88526D01*
G37*
G36*
X54879Y-111157D02*
X66263Y-122541D01*
X50707Y-138098D01*
X39322Y-126713D01*
X54879Y-111157D01*
G37*
G54D19*
X32147Y-71438D02*
X32147Y-100012D01*
X30162Y-101997D01*
G54D19*
X52793Y-124627D02*
X52793Y-126595D01*
X50800Y-128588D01*
X50403Y-186928D01*
X68659Y-205184D01*
X177403Y-205238D01*
G54D24*
X57150Y-65881D02*
X50006Y-73025D01*
X50006Y-99219D01*
X22622Y-126603D01*
X22622Y-134938D01*
G54D24*
X33314Y-148855D02*
X33314Y-138136D01*
X34925Y-136525D01*
X34925Y-126206D01*
X53975Y-107156D01*
X87709Y-107156D01*
X92472Y-102394D01*
X92472Y-73025D01*
X98053Y-67444D01*
X94481Y-35744D02*
G54D25*
D03*
X94481Y-51643D02*
G54D25*
D03*
X53603Y-35744D02*
G54D25*
D03*
X53603Y-51643D02*
G54D25*
D03*
G54D24*
X53603Y-35744D02*
X94481Y-35744D01*
G54D24*
X94481Y-35744D02*
X126231Y-35744D01*
X132556Y-42069D01*
X120278Y-27806D02*
G54D25*
D03*
X120278Y-43705D02*
G54D25*
D03*
X79400Y-27806D02*
G54D25*
D03*
X79400Y-43705D02*
G54D25*
D03*
G54D24*
X98053Y-66253D02*
X98053Y-55215D01*
X94481Y-51643D01*
G54D24*
X57175Y-65856D02*
X57175Y-55215D01*
X53603Y-51643D01*
G54D24*
X79400Y-43705D02*
X79400Y-56331D01*
X79375Y-56356D01*
G54D24*
X120278Y-43705D02*
X120278Y-56728D01*
X120253Y-56753D01*
G54D24*
X132581Y-93687D02*
X132556Y-42069D01*
G54D24*
X120278Y-27806D02*
X146075Y-27806D01*
X176212Y-57944D01*
G54D24*
X79400Y-27806D02*
X80541Y-27806D01*
X91281Y-17066D01*
X211534Y-17066D01*
X227012Y-32544D01*
X75828Y-99244D02*
G54D25*
D03*
X75828Y-115143D02*
G54D25*
D03*
X91702Y-130572D02*
G54D26*
D03*
X75803Y-130572D02*
G54D26*
D03*
G54D24*
X151197Y-173050D02*
X92484Y-173050D01*
X75803Y-156369D01*
X75803Y-130572D01*
X75803Y-115094D01*
G54D24*
X79375Y-88902D02*
X79375Y-95697D01*
X75828Y-99244D01*
G54D24*
X91702Y-130572D02*
X91702Y-115466D01*
X108744Y-98425D01*
X112316Y-98425D01*
X119459Y-91281D01*
X119459Y-90093D01*
X120253Y-89299D01*
G54D24*
X132581Y-124594D02*
X125412Y-131762D01*
X125412Y-135734D01*
X113482Y-147664D01*
G54D24*
X154775Y-85573D02*
X155727Y-85573D01*
X159147Y-82153D01*
X164306Y-76994D01*
G54D24*
X201612Y-32544D02*
X188913Y-45244D01*
X188912Y-68313D01*
X180231Y-76994D01*
X164306Y-76994D01*
G54D24*
X154781Y-115094D02*
X154775Y-101472D01*
X193675Y-115094D02*
G54D22*
D03*
X193675Y-134094D02*
G54D22*
D03*
X171475Y-124594D02*
G54D22*
D03*
X171475Y-93687D02*
G54D25*
D03*
X171475Y-109587D02*
G54D25*
D03*
X193675Y-147639D02*
G54D26*
D03*
X177776Y-147639D02*
G54D26*
D03*
X193663Y-157150D02*
G54D25*
D03*
X193663Y-173050D02*
G54D25*
D03*
G54D24*
X193675Y-147639D02*
X193675Y-157138D01*
X193663Y-157150D01*
G54D24*
X193675Y-134094D02*
X193675Y-147639D01*
X193687Y-147651D01*
G54D24*
X177776Y-147640D02*
X177788Y-138100D01*
X182550Y-133338D01*
X182550Y-126194D01*
X193675Y-115094D01*
G54D24*
X171475Y-124594D02*
X171475Y-109587D01*
X171450Y-109562D01*
X193669Y-85573D02*
G54D25*
D03*
X193669Y-101472D02*
G54D25*
D03*
G54D24*
X193675Y-115094D02*
X193669Y-101472D01*
G54D24*
X171475Y-124594D02*
X171475Y-134912D01*
X167878Y-138509D01*
X167878Y-161528D01*
X164306Y-165100D01*
X110331Y-165100D01*
X101997Y-156766D01*
X101997Y-124222D01*
X116681Y-109538D01*
G54D24*
X201612Y-57944D02*
X201612Y-77629D01*
X193669Y-85573D01*
G54D19*
X329009Y-222647D02*
X354409Y-222647D01*
G54D19*
X354409Y-222647D02*
X354409Y-211931D01*
G54D19*
X329009Y-211931D02*
X354409Y-211931D01*
G54D19*
X329009Y-222647D02*
X329009Y-211931D01*
G54D19*
X328612Y-107950D02*
X354012Y-107950D01*
G54D19*
X354012Y-107950D02*
X354012Y-97234D01*
G54D19*
X328612Y-97234D02*
X354012Y-97234D01*
G54D19*
X328612Y-107950D02*
X328612Y-97234D01*
G54D27*
X329009Y-217091D02*
X316706Y-217091D01*
G54D27*
X366712Y-217091D02*
X354409Y-217091D01*
X177403Y-173038D02*
G54D28*
D03*
X177403Y-205238D02*
G54D28*
D03*
G54D24*
X154769Y-173050D02*
X193663Y-173050D01*
G54D24*
X193663Y-173050D02*
X205172Y-173050D01*
X211138Y-167084D01*
X211138Y-156369D01*
X211162Y-156344D01*
G54D24*
X233362Y-165844D02*
X233362Y-194072D01*
X248047Y-126603D02*
G54D29*
D03*
X280051Y-126603D02*
G54D29*
D03*
G54D24*
X248047Y-126603D02*
X219472Y-126603D01*
X211138Y-134938D01*
X211138Y-156319D01*
X211162Y-156344D01*
X256381Y-214709D02*
G54D30*
D03*
X256381Y-182705D02*
G54D30*
D03*
X277812Y-214709D02*
G54D30*
D03*
X277812Y-182705D02*
G54D30*
D03*
G54D24*
X321072Y-171450D02*
X292100Y-171450D01*
X282575Y-180975D01*
X279543Y-180975D01*
X277812Y-182705D01*
G54D24*
X256381Y-182705D02*
X256381Y-167481D01*
X274638Y-149225D01*
X321072Y-149225D01*
G54D24*
X64691Y-291306D02*
X64691Y-239316D01*
X83344Y-220662D01*
X235744Y-220662D01*
X241697Y-214709D01*
X256381Y-214709D01*
G54D24*
X277812Y-214709D02*
X277812Y-225425D01*
X273844Y-229394D01*
X91281Y-229394D01*
X80169Y-240506D01*
X80169Y-289719D01*
G54D27*
X366316Y-102394D02*
X354012Y-102394D01*
G54D27*
X328612Y-102394D02*
X316309Y-102394D01*
%LPD*%
G54D27*
G36*
X200642Y-278032D02*
X211602Y-267072D01*
X215138Y-270608D01*
X204178Y-281568D01*
X200642Y-278032D01*
G37*
G36*
X204178Y-278032D02*
X215138Y-288992D01*
X211602Y-292528D01*
X200642Y-281568D01*
X204178Y-278032D01*
G37*
G36*
X204178Y-281568D02*
X193218Y-292528D01*
X189682Y-288992D01*
X200642Y-278032D01*
X204178Y-281568D01*
G37*
G36*
X200642Y-281568D02*
X189682Y-270608D01*
X193218Y-267072D01*
X204178Y-278032D01*
X200642Y-281568D01*
G37*
G54D31*
G36*
X138379Y-285619D02*
X149340Y-274659D01*
X152781Y-278100D01*
X141821Y-289061D01*
X138379Y-285619D01*
G37*
G36*
X141821Y-285619D02*
X152781Y-296580D01*
X149340Y-300021D01*
X138379Y-289061D01*
X141821Y-285619D01*
G37*
G36*
X141821Y-289061D02*
X130860Y-300021D01*
X127419Y-296580D01*
X138379Y-285619D01*
X141821Y-289061D01*
G37*
G36*
X138379Y-289061D02*
X127419Y-278100D01*
X130860Y-274659D01*
X141821Y-285619D01*
X138379Y-289061D01*
G37*
G54D32*
G36*
X321070Y-191237D02*
X333070Y-191237D01*
X333070Y-196903D01*
X321070Y-196903D01*
X321070Y-191237D01*
G37*
G36*
X323073Y-196073D02*
X314588Y-204559D01*
X310581Y-200552D01*
X319067Y-192067D01*
X323073Y-196073D01*
G37*
G54D27*
X276225Y-274638D02*
G54D33*
D03*
X276225Y-45244D02*
G54D33*
D03*
X202410Y-279800D02*
G54D34*
D03*
X200025Y-250031D02*
G54D34*
D03*
X140100Y-287340D02*
G54D34*
D03*
X80169Y-289719D02*
G54D35*
D03*
X64691Y-291306D02*
G54D35*
D03*
X321072Y-126603D02*
G54D36*
D03*
X321072Y-149225D02*
G54D36*
D03*
X321072Y-171450D02*
G54D36*
D03*
X321070Y-194070D02*
G54D36*
D03*
X227012Y-32544D02*
G54D37*
D03*
X345281Y-137716D02*
G54D38*
D03*
X345281Y-182562D02*
G54D38*
D03*
X201612Y-32544D02*
G54D37*
D03*
G54D39*
X22750Y-268684D02*
X40750Y-268684D01*
G36*
X13750Y-236269D02*
X49750Y-236269D01*
X49750Y-254269D01*
X13750Y-254269D01*
X13750Y-236269D01*
G37*
X176212Y-32544D02*
G54D37*
D03*
X201612Y-57944D02*
G54D37*
D03*
X176212Y-57944D02*
G54D37*
D03*
X150812Y-57944D02*
G54D37*
D03*
G54D27*
X140097Y-287338D02*
X157559Y-287338D01*
X165100Y-279797D01*
X202406Y-279797D01*
G54D27*
X202406Y-279797D02*
X235347Y-279797D01*
X270669Y-244475D01*
X279400Y-244475D01*
X298847Y-225028D01*
X298847Y-194072D01*
G54D27*
X207169Y-187722D02*
X221059Y-187722D01*
X227409Y-194072D01*
X321072Y-194072D01*
X207170Y-187720D02*
G54D40*
D03*
X32147Y-71438D02*
G54D40*
D03*
X227012Y-83344D02*
G54D37*
D03*
G54D41*
X80169Y-283969D02*
X80169Y-295469D01*
G54D41*
X64691Y-285556D02*
X64691Y-297056D01*
X233362Y-146844D02*
G54D42*
D03*
X233362Y-165844D02*
G54D42*
D03*
X211162Y-156344D02*
G54D42*
D03*
X22598Y-134964D02*
G54D43*
D03*
X33314Y-147664D02*
G54D43*
D03*
X113482Y-147664D02*
G54D43*
D03*
X116681Y-109538D02*
G54D43*
D03*
G54D44*
X233362Y-165894D02*
X233363Y-146894D01*
X154781Y-115094D02*
G54D42*
D03*
X154781Y-134094D02*
G54D42*
D03*
X132581Y-124594D02*
G54D42*
D03*
X132581Y-93687D02*
G54D45*
D03*
X132581Y-109587D02*
G54D45*
D03*
G54D44*
X321072Y-126603D02*
X280051Y-126603D01*
X154781Y-147639D02*
G54D46*
D03*
X138882Y-147639D02*
G54D46*
D03*
X154769Y-157150D02*
G54D45*
D03*
X154769Y-173050D02*
G54D45*
D03*
G54D44*
X154781Y-147639D02*
X154781Y-157138D01*
X154769Y-157150D01*
G54D27*
X177403Y-205238D02*
X233362Y-205184D01*
X236141Y-202406D01*
X290459Y-202459D01*
X298847Y-194072D01*
X79375Y-56356D02*
G54D42*
D03*
X79375Y-75356D02*
G54D42*
D03*
X57175Y-65856D02*
G54D42*
D03*
G54D44*
X154781Y-134094D02*
X154781Y-147639D01*
X154793Y-147651D01*
G54D44*
X138882Y-147640D02*
X138894Y-138100D01*
X143657Y-133338D01*
X143657Y-126194D01*
X154781Y-115094D01*
G54D44*
X63476Y-88902D02*
X63488Y-79363D01*
X68250Y-74600D01*
X68250Y-67457D01*
X79375Y-56356D01*
X79375Y-88902D02*
G54D46*
D03*
X63476Y-88902D02*
G54D46*
D03*
G54D44*
X79375Y-75356D02*
X79375Y-88902D01*
X79387Y-88914D01*
X120253Y-56753D02*
G54D42*
D03*
X120253Y-75753D02*
G54D42*
D03*
X98053Y-66253D02*
G54D42*
D03*
G54D44*
X104354Y-89299D02*
X104366Y-79760D01*
X109129Y-74997D01*
X109129Y-67854D01*
X120253Y-56753D01*
X120253Y-89299D02*
G54D46*
D03*
X104354Y-89299D02*
G54D46*
D03*
G54D44*
X120253Y-75753D02*
X120253Y-89299D01*
X120265Y-89311D01*
G54D44*
X132581Y-124594D02*
X132581Y-109587D01*
X132556Y-109562D01*
X154775Y-85573D02*
G54D45*
D03*
X154775Y-101472D02*
G54D45*
D03*
G54D44*
X132581Y-93687D02*
X207987Y-93687D01*
X213122Y-98822D01*
X293291Y-98822D01*
X321072Y-126603D01*
G36*
X32248Y-92769D02*
X39390Y-99911D01*
X28077Y-111225D01*
X20935Y-104083D01*
X32248Y-92769D01*
G37*
G36*
X54879Y-115399D02*
X62021Y-122541D01*
X50707Y-133855D01*
X43565Y-126713D01*
X54879Y-115399D01*
G37*
G54D27*
X32147Y-71438D02*
X32147Y-100012D01*
X30162Y-101997D01*
G54D27*
X52793Y-124627D02*
X52793Y-126595D01*
X50800Y-128588D01*
X50403Y-186928D01*
X68659Y-205184D01*
X177403Y-205238D01*
G54D44*
X57150Y-65881D02*
X50006Y-73025D01*
X50006Y-99219D01*
X22622Y-126603D01*
X22622Y-134938D01*
G54D44*
X33314Y-148855D02*
X33314Y-138136D01*
X34925Y-136525D01*
X34925Y-126206D01*
X53975Y-107156D01*
X87709Y-107156D01*
X92472Y-102394D01*
X92472Y-73025D01*
X98053Y-67444D01*
X94481Y-35744D02*
G54D45*
D03*
X94481Y-51643D02*
G54D45*
D03*
X53603Y-35744D02*
G54D45*
D03*
X53603Y-51643D02*
G54D45*
D03*
G54D44*
X53603Y-35744D02*
X94481Y-35744D01*
G54D44*
X94481Y-35744D02*
X126231Y-35744D01*
X132556Y-42069D01*
X120278Y-27806D02*
G54D45*
D03*
X120278Y-43705D02*
G54D45*
D03*
X79400Y-27806D02*
G54D45*
D03*
X79400Y-43705D02*
G54D45*
D03*
G54D44*
X98053Y-66253D02*
X98053Y-55215D01*
X94481Y-51643D01*
G54D44*
X57175Y-65856D02*
X57175Y-55215D01*
X53603Y-51643D01*
G54D44*
X79400Y-43705D02*
X79400Y-56331D01*
X79375Y-56356D01*
G54D44*
X120278Y-43705D02*
X120278Y-56728D01*
X120253Y-56753D01*
G54D44*
X132581Y-93687D02*
X132556Y-42069D01*
G54D44*
X120278Y-27806D02*
X146075Y-27806D01*
X176212Y-57944D01*
G54D44*
X79400Y-27806D02*
X80541Y-27806D01*
X91281Y-17066D01*
X211534Y-17066D01*
X227012Y-32544D01*
X75828Y-99244D02*
G54D45*
D03*
X75828Y-115143D02*
G54D45*
D03*
X91702Y-130572D02*
G54D46*
D03*
X75803Y-130572D02*
G54D46*
D03*
G54D44*
X151197Y-173050D02*
X92484Y-173050D01*
X75803Y-156369D01*
X75803Y-130572D01*
X75803Y-115094D01*
G54D44*
X79375Y-88902D02*
X79375Y-95697D01*
X75828Y-99244D01*
G54D44*
X91702Y-130572D02*
X91702Y-115466D01*
X108744Y-98425D01*
X112316Y-98425D01*
X119459Y-91281D01*
X119459Y-90093D01*
X120253Y-89299D01*
G54D44*
X132581Y-124594D02*
X125412Y-131762D01*
X125412Y-135734D01*
X113482Y-147664D01*
G54D44*
X154775Y-85573D02*
X155727Y-85573D01*
X159147Y-82153D01*
X164306Y-76994D01*
G54D44*
X201612Y-32544D02*
X188913Y-45244D01*
X188912Y-68313D01*
X180231Y-76994D01*
X164306Y-76994D01*
G54D44*
X154781Y-115094D02*
X154775Y-101472D01*
X193675Y-115094D02*
G54D42*
D03*
X193675Y-134094D02*
G54D42*
D03*
X171475Y-124594D02*
G54D42*
D03*
X171475Y-93687D02*
G54D45*
D03*
X171475Y-109587D02*
G54D45*
D03*
X193675Y-147639D02*
G54D46*
D03*
X177776Y-147639D02*
G54D46*
D03*
X193663Y-157150D02*
G54D45*
D03*
X193663Y-173050D02*
G54D45*
D03*
G54D44*
X193675Y-147639D02*
X193675Y-157138D01*
X193663Y-157150D01*
G54D44*
X193675Y-134094D02*
X193675Y-147639D01*
X193687Y-147651D01*
G54D44*
X177776Y-147640D02*
X177788Y-138100D01*
X182550Y-133338D01*
X182550Y-126194D01*
X193675Y-115094D01*
G54D44*
X171475Y-124594D02*
X171475Y-109587D01*
X171450Y-109562D01*
X193669Y-85573D02*
G54D45*
D03*
X193669Y-101472D02*
G54D45*
D03*
G54D44*
X193675Y-115094D02*
X193669Y-101472D01*
G54D44*
X171475Y-124594D02*
X171475Y-134912D01*
X167878Y-138509D01*
X167878Y-161528D01*
X164306Y-165100D01*
X110331Y-165100D01*
X101997Y-156766D01*
X101997Y-124222D01*
X116681Y-109538D01*
G54D44*
X201612Y-57944D02*
X201612Y-77629D01*
X193669Y-85573D01*
G54D27*
X329009Y-222647D02*
X354409Y-222647D01*
G54D27*
X354409Y-222647D02*
X354409Y-211931D01*
G54D27*
X329009Y-211931D02*
X354409Y-211931D01*
G54D27*
X329009Y-222647D02*
X329009Y-211931D01*
G54D27*
X328612Y-107950D02*
X354012Y-107950D01*
G54D27*
X354012Y-107950D02*
X354012Y-97234D01*
G54D27*
X328612Y-97234D02*
X354012Y-97234D01*
G54D27*
X328612Y-107950D02*
X328612Y-97234D01*
G54D27*
X329009Y-217091D02*
X316706Y-217091D01*
G54D27*
X366712Y-217091D02*
X354409Y-217091D01*
X177403Y-173038D02*
G54D47*
D03*
X177403Y-205238D02*
G54D47*
D03*
G54D44*
X154769Y-173050D02*
X193663Y-173050D01*
G54D44*
X193663Y-173050D02*
X205172Y-173050D01*
X211138Y-167084D01*
X211138Y-156369D01*
X211162Y-156344D01*
G54D44*
X233362Y-165844D02*
X233362Y-194072D01*
X248047Y-126603D02*
G54D48*
D03*
X280051Y-126603D02*
G54D48*
D03*
G54D44*
X248047Y-126603D02*
X219472Y-126603D01*
X211138Y-134938D01*
X211138Y-156319D01*
X211162Y-156344D01*
X256381Y-214709D02*
G54D49*
D03*
X256381Y-182705D02*
G54D49*
D03*
X277812Y-214709D02*
G54D49*
D03*
X277812Y-182705D02*
G54D49*
D03*
G54D44*
X321072Y-171450D02*
X292100Y-171450D01*
X282575Y-180975D01*
X279543Y-180975D01*
X277812Y-182705D01*
G54D44*
X256381Y-182705D02*
X256381Y-167481D01*
X274638Y-149225D01*
X321072Y-149225D01*
G54D44*
X64691Y-291306D02*
X64691Y-239316D01*
X83344Y-220662D01*
X235744Y-220662D01*
X241697Y-214709D01*
X256381Y-214709D01*
G54D44*
X277812Y-214709D02*
X277812Y-225425D01*
X273844Y-229394D01*
X91281Y-229394D01*
X80169Y-240506D01*
X80169Y-289719D01*
G54D27*
X366316Y-102394D02*
X354012Y-102394D01*
G54D27*
X328612Y-102394D02*
X316309Y-102394D01*
%LNAUGENFREISTANZEN*%
%LPC*%
X276225Y-274638D02*
G54D27*
D03*
X276225Y-45244D02*
G54D27*
D03*
X202410Y-279800D02*
G54D50*
D03*
X200025Y-250031D02*
G54D50*
D03*
X140100Y-287340D02*
G54D50*
D03*
X80169Y-289719D02*
G54D44*
D03*
X64691Y-291306D02*
G54D44*
D03*
X321072Y-126603D02*
G54D51*
D03*
X321072Y-149225D02*
G54D51*
D03*
X321072Y-171450D02*
G54D51*
D03*
X321070Y-194070D02*
G54D51*
D03*
X227012Y-32544D02*
G54D50*
D03*
X345281Y-137716D02*
G54D50*
D03*
X345281Y-182562D02*
G54D50*
D03*
X201612Y-32544D02*
G54D50*
D03*
X31750Y-268684D02*
G54D52*
D03*
X31750Y-245269D02*
G54D52*
D03*
X176212Y-32544D02*
G54D50*
D03*
X201612Y-57944D02*
G54D50*
D03*
X176212Y-57944D02*
G54D50*
D03*
X150812Y-57944D02*
G54D50*
D03*
X207170Y-187720D02*
G54D50*
D03*
X32147Y-71438D02*
G54D50*
D03*
X227012Y-83344D02*
G54D50*
D03*
X80169Y-289719D02*
G54D50*
D03*
X64691Y-291306D02*
G54D50*
D03*
X22598Y-134964D02*
G54D50*
D03*
X33314Y-147664D02*
G54D50*
D03*
X113482Y-147664D02*
G54D50*
D03*
X116681Y-109538D02*
G54D50*
D03*
M02*
