%FSLAX34Y34*%
%MOMM*%
%LNSILK_TOP*%
G71*
G01*
%ADD10C, 0.00*%
%ADD11C, 3.10*%
%ADD12R, 1.25X1.87*%
%ADD13R, 1.80X1.50*%
%ADD14R, 2.80X2.80*%
%ADD15R, 2.20X1.61*%
%ADD16C, 0.70*%
%ADD17C, 2.30*%
%ADD18C, 1.10*%
%ADD19C, 1.20*%
%ADD20C, 0.90*%
%ADD21R, 1.40X1.20*%
%ADD22C, 2.60*%
%ADD23R, 1.87X1.25*%
%ADD24R, 1.70X1.70*%
%ADD25R, 1.20X1.40*%
%ADD26R, 2.03X1.40*%
%ADD27C, 2.10*%
%ADD28C, 0.85*%
%ADD29R, 2.20X1.60*%
%ADD30C, 2.70*%
%ADD31C, 2.75*%
%ADD32R, 1.40X2.16*%
%ADD33C, 1.60*%
%ADD34C, 0.15*%
%ADD35R, 1.81X2.40*%
%ADD36C, 0.95*%
%ADD37C, 1.90*%
%ADD38R, 1.40X1.00*%
%ADD39C, 0.57*%
%ADD40C, 0.50*%
%ADD41C, 2.50*%
%ADD42R, 0.65X1.27*%
%ADD43R, 1.00X0.70*%
%ADD44R, 2.20X2.20*%
%ADD45R, 1.60X1.01*%
%ADD46C, 0.10*%
%ADD47C, 1.70*%
%ADD48C, 0.60*%
%ADD49C, 0.30*%
%ADD50R, 0.80X0.60*%
%ADD51C, 1.80*%
%ADD52R, 1.27X0.65*%
%ADD53R, 1.10X1.10*%
%ADD54R, 0.60X0.80*%
%ADD55R, 1.43X0.80*%
%ADD56C, 1.50*%
%ADD57C, 0.25*%
%ADD58R, 1.60X1.00*%
%ADD59C, 1.70*%
%ADD60C, 1.75*%
%ADD61R, 0.80X1.56*%
%ADD62C, 1.00*%
%ADD63R, 1.01X1.60*%
%ADD64C, 0.35*%
%ADD65C, 1.30*%
%ADD66R, 0.80X0.40*%
%ADD67C, 0.40*%
%ADD68C, 0.00*%
%LPD*%
G54D10*
X0Y0D02*
X530000Y0D01*
X530000Y-320000D01*
X0Y-320000D01*
X0Y0D01*
G36*
X0Y0D02*
X530000Y0D01*
X530000Y-320000D01*
X0Y-320000D01*
X0Y0D01*
G37*
%LPC*%
X276225Y-274638D02*
G54D11*
D03*
X276225Y-45244D02*
G54D11*
D03*
X207381Y-173537D02*
G54D12*
D03*
X220081Y-173537D02*
G54D12*
D03*
X232781Y-173537D02*
G54D12*
D03*
X245481Y-173537D02*
G54D12*
D03*
X245481Y-122737D02*
G54D12*
D03*
X232781Y-122738D02*
G54D12*
D03*
X220081Y-122737D02*
G54D12*
D03*
X207381Y-122738D02*
G54D12*
D03*
X149622Y-217488D02*
G54D13*
D03*
X149622Y-198488D02*
G54D13*
D03*
X125822Y-217488D02*
G54D13*
D03*
X125822Y-198488D02*
G54D13*
D03*
X125822Y-207988D02*
G54D13*
D03*
X279400Y-169466D02*
G54D14*
D03*
X279400Y-126566D02*
G54D14*
D03*
X171450Y-247253D02*
G54D14*
D03*
G36*
X114550Y-233253D02*
X142550Y-233253D01*
X142550Y-261253D01*
X114550Y-261253D01*
X114550Y-233253D01*
G37*
X279400Y-228997D02*
G54D15*
D03*
X279400Y-196993D02*
G54D15*
D03*
G54D16*
X331391Y-100012D02*
X351631Y-100012D01*
X351631Y-105172D01*
X331391Y-105172D01*
X331391Y-100012D01*
G54D16*
X331391Y-214709D02*
X351631Y-214709D01*
X351631Y-219869D01*
X331391Y-219869D01*
X331391Y-214709D01*
X321072Y-126603D02*
G54D17*
D03*
X321072Y-149225D02*
G54D17*
D03*
X321072Y-171450D02*
G54D17*
D03*
X321070Y-194070D02*
G54D17*
D03*
G54D18*
X328612Y-107950D02*
X354012Y-107950D01*
G54D18*
X354012Y-107950D02*
X354012Y-97234D01*
G54D18*
X328612Y-97234D02*
X354012Y-97234D01*
G54D18*
X328612Y-107950D02*
X328612Y-97234D01*
G54D18*
X329009Y-222647D02*
X354409Y-222647D01*
G54D18*
X354409Y-222647D02*
X354409Y-211931D01*
G54D18*
X329009Y-211931D02*
X354409Y-211931D01*
G54D18*
X329009Y-222647D02*
X329009Y-211931D01*
X345281Y-137716D02*
G54D19*
D03*
X345281Y-182562D02*
G54D19*
D03*
G54D18*
X321072Y-194072D02*
X321072Y-203994D01*
X329009Y-211931D01*
G54D18*
X321072Y-126603D02*
X279400Y-126566D01*
G54D18*
X279400Y-169466D02*
X279400Y-196993D01*
G54D18*
X200025Y-250031D02*
X216694Y-250031D01*
X267494Y-250031D01*
X279400Y-238125D01*
X279400Y-228997D01*
G54D18*
X171450Y-247253D02*
X205978Y-212725D01*
X258366Y-212725D01*
X263128Y-207962D01*
X263128Y-185738D01*
G54D20*
X232966Y-173434D02*
X232966Y-192484D01*
X227806Y-197644D01*
X227800Y-202138D01*
X116681Y-80962D02*
G54D21*
D03*
X116681Y-96862D02*
G54D21*
D03*
G54D18*
X140097Y-287338D02*
X157559Y-287338D01*
X165100Y-279797D01*
X202406Y-279797D01*
G54D22*
X22750Y-268684D02*
X40750Y-268684D01*
G36*
X9750Y-232269D02*
X53750Y-232269D01*
X53750Y-258269D01*
X9750Y-258269D01*
X9750Y-232269D01*
G37*
X98798Y-109564D02*
G54D23*
D03*
X98798Y-96864D02*
G54D23*
D03*
X98798Y-84164D02*
G54D23*
D03*
X98798Y-71464D02*
G54D23*
D03*
X47998Y-71464D02*
G54D23*
D03*
X47998Y-84164D02*
G54D23*
D03*
X47998Y-96864D02*
G54D23*
D03*
X47998Y-109564D02*
G54D23*
D03*
X47998Y-122264D02*
G54D23*
D03*
X47998Y-134964D02*
G54D23*
D03*
X47998Y-147664D02*
G54D23*
D03*
X98798Y-122264D02*
G54D23*
D03*
X98798Y-134964D02*
G54D23*
D03*
X98798Y-147664D02*
G54D23*
D03*
X127397Y-164306D02*
G54D24*
D03*
X127397Y-183306D02*
G54D24*
D03*
X149597Y-173806D02*
G54D24*
D03*
X73422Y-237728D02*
G54D24*
D03*
X73422Y-256728D02*
G54D24*
D03*
X95622Y-247228D02*
G54D24*
D03*
G54D18*
X31750Y-268684D02*
X191294Y-268684D01*
X202406Y-279797D01*
G54D18*
X95622Y-247228D02*
X128525Y-247228D01*
X128550Y-247253D01*
G36*
X93615Y-168766D02*
X105615Y-168765D01*
X105616Y-182765D01*
X93616Y-182766D01*
X93615Y-168766D01*
G37*
X115515Y-175766D02*
G54D25*
D03*
G36*
X93591Y-157306D02*
X105591Y-157306D01*
X105591Y-171306D01*
X93591Y-171306D01*
X93591Y-157306D01*
G37*
G36*
X109491Y-157306D02*
X121491Y-157306D01*
X121491Y-171306D01*
X109491Y-171306D01*
X109491Y-157306D01*
G37*
X84931Y-188888D02*
G54D21*
D03*
X84931Y-204788D02*
G54D21*
D03*
X73422Y-188912D02*
G54D21*
D03*
X73422Y-204812D02*
G54D21*
D03*
G54D20*
X116681Y-96862D02*
X116681Y-109538D01*
X98798Y-109564D01*
X248841Y-223044D02*
G54D26*
D03*
X248834Y-201741D02*
G54D26*
D03*
X227806Y-223441D02*
G54D26*
D03*
X227800Y-202138D02*
G54D26*
D03*
G54D18*
X279400Y-169466D02*
X263128Y-185738D01*
G54D20*
X47998Y-109564D02*
X58367Y-109564D01*
X60722Y-111919D01*
X60722Y-159147D01*
X56753Y-163116D01*
X48816Y-163116D01*
X207170Y-187720D02*
G54D27*
D03*
X240915Y-187732D02*
G54D25*
D03*
X225016Y-187732D02*
G54D25*
D03*
G54D18*
X207169Y-187722D02*
X207169Y-173750D01*
X207381Y-173537D01*
X32147Y-71438D02*
G54D27*
D03*
G54D18*
X47998Y-71464D02*
X48025Y-71438D01*
X32147Y-71438D01*
G54D20*
X73422Y-256728D02*
X82203Y-256728D01*
X84534Y-254397D01*
X84534Y-231775D01*
X79375Y-226616D01*
X79375Y-212328D01*
X83741Y-207169D01*
X83741Y-204788D01*
G54D20*
X73422Y-237728D02*
X73422Y-204812D01*
G54D28*
X73422Y-188912D02*
X84907Y-188912D01*
X84931Y-188888D01*
G54D28*
X225016Y-187732D02*
X207179Y-187732D01*
X207169Y-187722D01*
G54D18*
X232966Y-122634D02*
X232966Y-145256D01*
G54D20*
X99616Y-175765D02*
X99591Y-164306D01*
G54D18*
X31750Y-245269D02*
X55562Y-245269D01*
X63103Y-237728D01*
X73422Y-237728D01*
G54D20*
X125822Y-207988D02*
X155972Y-207962D01*
X161528Y-213519D01*
X167481Y-216297D01*
X167481Y-216297D02*
G54D29*
D03*
X167481Y-184097D02*
G54D29*
D03*
X109141Y-228203D02*
G54D26*
D03*
X109134Y-206900D02*
G54D26*
D03*
G54D20*
X109141Y-228203D02*
X138906Y-228203D01*
X149622Y-217488D01*
G54D20*
X109134Y-206900D02*
X117603Y-206900D01*
X118666Y-207962D01*
X125797Y-207962D01*
X125822Y-207988D01*
G54D20*
X98798Y-96864D02*
X88826Y-96864D01*
X86074Y-99616D01*
X86074Y-159099D01*
X91281Y-164306D01*
X99591Y-164306D01*
G54D20*
X84931Y-188888D02*
X84931Y-176213D01*
X79772Y-171053D01*
X79772Y-90884D01*
X86519Y-84138D01*
X98771Y-84138D01*
X98798Y-84164D01*
X31736Y-163104D02*
G54D21*
D03*
X31736Y-179003D02*
G54D21*
D03*
X48816Y-163116D02*
G54D21*
D03*
X48816Y-179015D02*
G54D21*
D03*
G54D20*
X48816Y-179015D02*
X55538Y-179015D01*
X67072Y-167481D01*
X67072Y-101600D01*
X62336Y-96864D01*
X47998Y-96864D01*
G54D20*
X116681Y-80962D02*
X116681Y-71438D01*
G54D18*
X98798Y-71464D02*
X122264Y-71464D01*
X136525Y-85725D01*
X136525Y-145256D01*
X227012Y-32544D02*
G54D30*
D03*
X201612Y-32544D02*
G54D30*
D03*
X176212Y-32544D02*
G54D30*
D03*
X201612Y-57944D02*
G54D30*
D03*
X176212Y-57944D02*
G54D30*
D03*
X150812Y-57944D02*
G54D30*
D03*
X227012Y-83344D02*
G54D31*
D03*
G54D20*
X22598Y-134964D02*
X47998Y-134964D01*
G54D20*
X33314Y-147664D02*
X47998Y-147664D01*
G36*
X157512Y-76344D02*
X169512Y-76344D01*
X169513Y-90344D01*
X157513Y-90344D01*
X157512Y-76344D01*
G37*
X179412Y-83344D02*
G54D25*
D03*
X194435Y-106037D02*
G54D32*
D03*
X159435Y-106037D02*
G54D32*
D03*
G54D20*
X194435Y-106037D02*
X204462Y-106037D01*
X208756Y-110331D01*
X252016Y-110331D01*
X258366Y-116681D01*
X258366Y-123428D01*
X261541Y-126603D01*
X279362Y-126603D01*
X279400Y-126566D01*
G54D18*
X279400Y-169466D02*
X255153Y-145256D01*
X136525Y-145256D01*
G54D28*
X220266Y-173434D02*
X219869Y-173434D01*
X219869Y-158750D01*
X251619Y-158750D01*
X255191Y-162322D01*
X255191Y-181372D01*
X248841Y-187722D01*
X240915Y-187732D01*
G54D28*
X248841Y-187722D02*
X248834Y-201741D01*
G54D20*
X248841Y-223044D02*
X261938Y-223044D01*
X272653Y-212328D01*
X279400Y-212328D01*
X279400Y-196993D01*
G54D20*
X227806Y-223441D02*
X227806Y-231378D01*
X231378Y-234950D01*
X261144Y-234950D01*
X267494Y-228600D01*
X279003Y-228600D01*
X279400Y-228997D01*
G54D33*
X80169Y-284719D02*
X80169Y-294719D01*
G54D33*
X64691Y-286306D02*
X64691Y-296306D01*
X202410Y-279800D02*
G54D27*
D03*
X200025Y-250031D02*
G54D27*
D03*
X140100Y-287340D02*
G54D27*
D03*
G54D34*
X9922Y-9922D02*
X9922Y-309959D01*
G54D34*
X309959Y-9922D02*
X9922Y-9922D01*
G54D34*
X309959Y-309960D02*
X9922Y-309959D01*
G54D34*
X309959Y-89694D02*
X371078Y-89694D01*
G54D34*
X309959Y-230188D02*
X371078Y-230188D01*
G54D34*
X309959Y-9922D02*
X309959Y-89694D01*
G54D34*
X371078Y-89694D02*
X371078Y-230188D01*
G54D34*
X309959Y-230188D02*
X309959Y-309960D01*
G54D20*
X115515Y-175766D02*
X119856Y-175766D01*
X127397Y-183306D01*
G54D28*
X127397Y-164306D02*
X115491Y-164306D01*
X92869Y-219075D02*
G54D35*
D03*
X60865Y-219075D02*
G54D35*
D03*
G54D20*
X125822Y-217488D02*
X103187Y-217488D01*
X101600Y-219075D01*
X92869Y-219075D01*
X31750Y-227409D02*
G54D15*
D03*
X31750Y-195405D02*
G54D15*
D03*
G54D18*
X31750Y-245269D02*
X31750Y-227409D01*
G54D36*
X31750Y-195405D02*
X41418Y-195405D01*
X42862Y-196850D01*
X117078Y-196850D01*
X118666Y-198438D01*
X125809Y-198438D01*
X61516Y-188912D02*
G54D21*
D03*
X61516Y-204812D02*
G54D21*
D03*
X48816Y-188912D02*
G54D21*
D03*
X48816Y-204812D02*
G54D21*
D03*
G54D20*
X61516Y-188912D02*
X61516Y-182959D01*
X73422Y-171053D01*
X73422Y-80962D01*
X82947Y-71438D01*
X98771Y-71438D01*
X98798Y-71464D01*
G54D20*
X60722Y-219075D02*
X60722Y-209947D01*
X61516Y-208756D01*
X61516Y-204788D01*
G54D20*
X31750Y-195405D02*
X31736Y-179003D01*
G54D28*
X48816Y-188912D02*
X48816Y-179015D01*
G54D20*
X48816Y-163116D02*
X31748Y-163116D01*
X31736Y-163104D01*
G54D20*
X48816Y-204812D02*
X48816Y-213122D01*
X37703Y-224234D01*
X22598Y-134964D02*
G54D37*
D03*
X33314Y-147664D02*
G54D37*
D03*
G54D20*
X98798Y-147664D02*
X113482Y-147664D01*
X113482Y-147664D02*
G54D37*
D03*
X116681Y-109538D02*
G54D37*
D03*
G54D20*
X163512Y-83344D02*
X144462Y-83344D01*
X124222Y-63103D01*
X69056Y-63103D01*
X61516Y-70644D01*
X61516Y-81756D01*
X59134Y-84138D01*
X48025Y-84138D01*
X47998Y-84164D01*
X191294Y-165497D02*
G54D15*
D03*
X191294Y-133493D02*
G54D15*
D03*
G54D20*
X173434Y-213122D02*
X181372Y-205184D01*
X181372Y-177403D01*
X175816Y-171847D01*
X175816Y-159544D01*
X180975Y-154384D01*
X203200Y-154384D01*
X207169Y-158353D01*
X207169Y-173325D01*
X207381Y-173537D01*
G54D20*
X191294Y-165497D02*
X191294Y-194866D01*
X198438Y-202009D01*
X227672Y-202009D01*
X227800Y-202138D01*
G54D18*
X167481Y-184097D02*
X159887Y-184097D01*
X149597Y-173806D01*
G54D18*
X149622Y-198488D02*
X161478Y-198488D01*
X167481Y-192484D01*
X167481Y-184097D01*
G54D20*
X191294Y-133350D02*
X200422Y-133350D01*
X203597Y-136525D01*
X216297Y-136525D01*
X220266Y-132556D01*
X220266Y-122634D01*
X94853Y-52388D02*
G54D24*
D03*
X113853Y-52388D02*
G54D24*
D03*
X104353Y-30187D02*
G54D24*
D03*
X43259Y-52388D02*
G54D24*
D03*
X62259Y-52388D02*
G54D24*
D03*
X52759Y-30187D02*
G54D24*
D03*
X150813Y-75803D02*
G54D21*
D03*
X150812Y-91702D02*
G54D21*
D03*
G54D20*
X150813Y-75803D02*
X150812Y-57944D01*
X129381Y-36512D02*
G54D21*
D03*
X129381Y-52412D02*
G54D21*
D03*
X78581Y-36512D02*
G54D21*
D03*
X78581Y-52412D02*
G54D21*
D03*
G54D20*
X129381Y-52412D02*
X113877Y-52412D01*
X113853Y-52388D01*
X94853Y-52388D01*
G54D20*
X43259Y-52388D02*
X62259Y-52388D01*
G54D20*
X32147Y-71438D02*
X32147Y-63500D01*
X43259Y-52388D01*
X23019Y-36512D02*
G54D21*
D03*
X23019Y-52412D02*
G54D21*
D03*
G54D20*
X52759Y-30187D02*
X30534Y-30187D01*
X25400Y-35322D01*
X24209Y-35322D01*
X23019Y-36512D01*
G54D20*
X23019Y-52412D02*
X23019Y-61516D01*
X18653Y-65881D01*
X18653Y-107604D01*
X33314Y-122264D01*
X47998Y-122264D01*
G54D20*
X62259Y-52388D02*
X94853Y-52388D01*
G54D20*
X52759Y-30187D02*
X72256Y-30187D01*
X78581Y-36512D01*
G54D20*
X104353Y-30187D02*
X121866Y-30187D01*
X127000Y-35322D01*
X128191Y-35322D01*
X129381Y-36512D01*
G54D20*
X129381Y-36512D02*
X145256Y-36512D01*
X150812Y-42069D01*
X150812Y-57944D01*
G54D20*
X78581Y-36512D02*
X79772Y-36512D01*
X86122Y-30162D01*
X86122Y-23019D01*
X89297Y-19844D01*
X144066Y-19844D01*
X156766Y-32544D01*
X176212Y-32544D01*
G36*
X122587Y-115238D02*
X134587Y-115237D01*
X134588Y-129237D01*
X122588Y-129238D01*
X122587Y-115238D01*
G37*
X144487Y-122238D02*
G54D25*
D03*
G36*
X122587Y-127938D02*
X134587Y-127937D01*
X134588Y-141937D01*
X122588Y-141938D01*
X122587Y-127938D01*
G37*
X144487Y-134938D02*
G54D25*
D03*
G54D20*
X98798Y-134964D02*
X128561Y-134964D01*
X128588Y-134938D01*
X161925Y-156766D02*
G54D15*
D03*
X161925Y-124762D02*
G54D15*
D03*
G54D20*
X161925Y-156766D02*
X134938Y-156766D01*
X127397Y-164306D01*
G54D20*
X161925Y-124762D02*
X180435Y-124762D01*
X194072Y-111125D01*
G54D20*
X98798Y-122264D02*
X128561Y-122264D01*
X128588Y-122238D01*
G54D20*
X150812Y-91702D02*
X150812Y-105966D01*
X159364Y-105966D01*
X159435Y-106037D01*
G54D20*
X144487Y-122238D02*
X144487Y-112292D01*
X150812Y-105966D01*
G54D20*
X144487Y-134938D02*
X150813Y-134938D01*
X152797Y-136922D01*
X176609Y-136922D01*
X179784Y-133747D01*
X191040Y-133747D01*
X191294Y-133493D01*
X247239Y-65472D02*
G54D21*
D03*
X247239Y-81371D02*
G54D21*
D03*
X290550Y-76200D02*
G54D38*
D03*
X290550Y-82500D02*
G54D38*
D03*
X290550Y-88900D02*
G54D38*
D03*
X273050Y-76200D02*
G54D38*
D03*
X273050Y-82500D02*
G54D38*
D03*
X273050Y-88900D02*
G54D38*
D03*
X247253Y-90884D02*
G54D25*
D03*
X263152Y-90885D02*
G54D25*
D03*
G54D20*
X273050Y-88900D02*
X281781Y-88900D01*
G54D20*
X290550Y-76200D02*
X281781Y-76200D01*
X281781Y-88900D01*
G54D20*
X195659Y-83344D02*
X179412Y-83344D01*
G54D20*
X176213Y-32544D02*
X188913Y-45244D01*
X214312Y-45244D01*
G36*
X189659Y-76344D02*
X201659Y-76344D01*
X201659Y-90344D01*
X189659Y-90344D01*
X189659Y-76344D01*
G37*
X211558Y-83344D02*
G54D25*
D03*
G54D20*
X211558Y-83344D02*
X227012Y-83344D01*
G54D20*
X247253Y-90884D02*
X247253Y-81385D01*
X247239Y-81371D01*
G54D20*
X273050Y-82500D02*
X256728Y-82500D01*
X255588Y-81359D01*
X247251Y-81359D01*
X247239Y-81371D01*
G54D20*
X273050Y-88900D02*
X271066Y-88900D01*
X269081Y-90884D01*
X263152Y-90885D01*
G54D20*
X290550Y-82500D02*
X290550Y-88900D01*
G54D20*
X195659Y-83344D02*
X195659Y-84534D01*
X213122Y-101997D01*
X286147Y-101997D01*
X290512Y-97631D01*
X290512Y-88938D01*
X290550Y-88900D01*
G54D20*
X227012Y-83344D02*
X236934Y-73422D01*
X257572Y-73422D01*
X260350Y-76200D01*
X273050Y-76200D01*
G54D20*
X247239Y-65472D02*
X234541Y-65472D01*
X214312Y-45244D01*
G54D20*
X290550Y-76200D02*
X299244Y-76200D01*
X302022Y-78978D01*
X302022Y-106362D01*
X303609Y-107950D01*
X328612Y-107950D01*
%LPD*%
G54D39*
G36*
X321070Y-191237D02*
X333070Y-191237D01*
X333070Y-196903D01*
X321070Y-196903D01*
X321070Y-191237D01*
G37*
G36*
X323073Y-196073D02*
X314588Y-204559D01*
X310581Y-200552D01*
X319067Y-192067D01*
X323073Y-196073D01*
G37*
G54D40*
G54D40*
G36*
X199910Y-279800D02*
X199910Y-268800D01*
X204910Y-268800D01*
X204910Y-279800D01*
X199910Y-279800D01*
G37*
G36*
X202410Y-277300D02*
X213410Y-277300D01*
X213410Y-282300D01*
X202410Y-282300D01*
X202410Y-277300D01*
G37*
G36*
X204910Y-279800D02*
X204910Y-290800D01*
X199910Y-290800D01*
X199910Y-279800D01*
X204910Y-279800D01*
G37*
G36*
X202410Y-282300D02*
X191410Y-282300D01*
X191410Y-277300D01*
X202410Y-277300D01*
X202410Y-282300D01*
G37*
G54D40*
G36*
X137600Y-287340D02*
X137600Y-276340D01*
X142600Y-276340D01*
X142600Y-287340D01*
X137600Y-287340D01*
G37*
G36*
X142600Y-287340D02*
X142600Y-298340D01*
X137600Y-298340D01*
X137600Y-287340D01*
X142600Y-287340D01*
G37*
G36*
X140100Y-289840D02*
X129100Y-289840D01*
X129100Y-284840D01*
X140100Y-284840D01*
X140100Y-289840D01*
G37*
X276225Y-274638D02*
G54D41*
D03*
X276225Y-45244D02*
G54D41*
D03*
X207381Y-173537D02*
G54D42*
D03*
X220081Y-173537D02*
G54D42*
D03*
X232781Y-173537D02*
G54D42*
D03*
X245481Y-173537D02*
G54D42*
D03*
X245481Y-122737D02*
G54D42*
D03*
X232781Y-122738D02*
G54D42*
D03*
X220081Y-122737D02*
G54D42*
D03*
X207381Y-122738D02*
G54D42*
D03*
X149622Y-217488D02*
G54D43*
D03*
X149622Y-198488D02*
G54D43*
D03*
X125822Y-217488D02*
G54D43*
D03*
X125822Y-198488D02*
G54D43*
D03*
X125822Y-207988D02*
G54D43*
D03*
X279400Y-169466D02*
G54D44*
D03*
X279400Y-126566D02*
G54D44*
D03*
X171450Y-247253D02*
G54D44*
D03*
G36*
X117550Y-236253D02*
X139550Y-236253D01*
X139550Y-258253D01*
X117550Y-258253D01*
X117550Y-236253D01*
G37*
X279400Y-228997D02*
G54D45*
D03*
X279400Y-196993D02*
G54D45*
D03*
G54D46*
X331391Y-100012D02*
X351631Y-100012D01*
X351631Y-105172D01*
X331391Y-105172D01*
X331391Y-100012D01*
G54D46*
X331391Y-214709D02*
X351631Y-214709D01*
X351631Y-219869D01*
X331391Y-219869D01*
X331391Y-214709D01*
X321072Y-126603D02*
G54D47*
D03*
X321072Y-149225D02*
G54D47*
D03*
X321072Y-171450D02*
G54D47*
D03*
X321070Y-194070D02*
G54D47*
D03*
G54D40*
X328612Y-107950D02*
X354012Y-107950D01*
G54D40*
X354012Y-107950D02*
X354012Y-97234D01*
G54D40*
X328612Y-97234D02*
X354012Y-97234D01*
G54D40*
X328612Y-107950D02*
X328612Y-97234D01*
G54D40*
X329009Y-222647D02*
X354409Y-222647D01*
G54D40*
X354409Y-222647D02*
X354409Y-211931D01*
G54D40*
X329009Y-211931D02*
X354409Y-211931D01*
G54D40*
X329009Y-222647D02*
X329009Y-211931D01*
X345281Y-137716D02*
G54D48*
D03*
X345281Y-182562D02*
G54D48*
D03*
G54D40*
X321072Y-194072D02*
X321072Y-203994D01*
X329009Y-211931D01*
G54D40*
X321072Y-126603D02*
X279400Y-126566D01*
G54D40*
X279400Y-169466D02*
X279400Y-196993D01*
G54D40*
X200025Y-250031D02*
X216694Y-250031D01*
X267494Y-250031D01*
X279400Y-238125D01*
X279400Y-228997D01*
G54D40*
X171450Y-247253D02*
X205978Y-212725D01*
X258366Y-212725D01*
X263128Y-207962D01*
X263128Y-185738D01*
G54D49*
X232966Y-173434D02*
X232966Y-192484D01*
X227806Y-197644D01*
X227800Y-202138D01*
X116681Y-80962D02*
G54D50*
D03*
X116681Y-96862D02*
G54D50*
D03*
G54D40*
X140097Y-287338D02*
X157559Y-287338D01*
X165100Y-279797D01*
X202406Y-279797D01*
G54D51*
X22750Y-268684D02*
X40750Y-268684D01*
G36*
X13750Y-236269D02*
X49750Y-236269D01*
X49750Y-254269D01*
X13750Y-254269D01*
X13750Y-236269D01*
G37*
X98798Y-109564D02*
G54D52*
D03*
X98798Y-96864D02*
G54D52*
D03*
X98798Y-84164D02*
G54D52*
D03*
X98798Y-71464D02*
G54D52*
D03*
X47998Y-71464D02*
G54D52*
D03*
X47998Y-84164D02*
G54D52*
D03*
X47998Y-96864D02*
G54D52*
D03*
X47998Y-109564D02*
G54D52*
D03*
X47998Y-122264D02*
G54D52*
D03*
X47998Y-134964D02*
G54D52*
D03*
X47998Y-147664D02*
G54D52*
D03*
X98798Y-122264D02*
G54D52*
D03*
X98798Y-134964D02*
G54D52*
D03*
X98798Y-147664D02*
G54D52*
D03*
X127397Y-164306D02*
G54D53*
D03*
X127397Y-183306D02*
G54D53*
D03*
X149597Y-173806D02*
G54D53*
D03*
X73422Y-237728D02*
G54D53*
D03*
X73422Y-256728D02*
G54D53*
D03*
X95622Y-247228D02*
G54D53*
D03*
G54D40*
X31750Y-268684D02*
X191294Y-268684D01*
X202406Y-279797D01*
G54D40*
X95622Y-247228D02*
X128525Y-247228D01*
X128550Y-247253D01*
G36*
X96615Y-171766D02*
X102615Y-171765D01*
X102616Y-179765D01*
X96616Y-179766D01*
X96615Y-171766D01*
G37*
X115515Y-175766D02*
G54D54*
D03*
G36*
X96591Y-160306D02*
X102591Y-160306D01*
X102591Y-168306D01*
X96591Y-168306D01*
X96591Y-160306D01*
G37*
G36*
X112491Y-160306D02*
X118491Y-160306D01*
X118491Y-168306D01*
X112491Y-168306D01*
X112491Y-160306D01*
G37*
X84931Y-188888D02*
G54D50*
D03*
X84931Y-204788D02*
G54D50*
D03*
X73422Y-188912D02*
G54D50*
D03*
X73422Y-204812D02*
G54D50*
D03*
G54D49*
X116681Y-96862D02*
X116681Y-109538D01*
X98798Y-109564D01*
X248841Y-223044D02*
G54D55*
D03*
X248834Y-201741D02*
G54D55*
D03*
X227806Y-223441D02*
G54D55*
D03*
X227800Y-202138D02*
G54D55*
D03*
G54D40*
X279400Y-169466D02*
X263128Y-185738D01*
G54D49*
X47998Y-109564D02*
X58367Y-109564D01*
X60722Y-111919D01*
X60722Y-159147D01*
X56753Y-163116D01*
X48816Y-163116D01*
X207170Y-187720D02*
G54D56*
D03*
X240915Y-187732D02*
G54D54*
D03*
X225016Y-187732D02*
G54D54*
D03*
G54D40*
X207169Y-187722D02*
X207169Y-173750D01*
X207381Y-173537D01*
X32147Y-71438D02*
G54D56*
D03*
G54D40*
X47998Y-71464D02*
X48025Y-71438D01*
X32147Y-71438D01*
G54D49*
X73422Y-256728D02*
X82203Y-256728D01*
X84534Y-254397D01*
X84534Y-231775D01*
X79375Y-226616D01*
X79375Y-212328D01*
X83741Y-207169D01*
X83741Y-204788D01*
G54D49*
X73422Y-237728D02*
X73422Y-204812D01*
G54D57*
X73422Y-188912D02*
X84907Y-188912D01*
X84931Y-188888D01*
G54D57*
X225016Y-187732D02*
X207179Y-187732D01*
X207169Y-187722D01*
G54D40*
X232966Y-122634D02*
X232966Y-145256D01*
G54D49*
X99616Y-175765D02*
X99591Y-164306D01*
G54D40*
X31750Y-245269D02*
X55562Y-245269D01*
X63103Y-237728D01*
X73422Y-237728D01*
G54D49*
X125822Y-207988D02*
X155972Y-207962D01*
X161528Y-213519D01*
X167481Y-216297D01*
X167481Y-216297D02*
G54D58*
D03*
X167481Y-184097D02*
G54D58*
D03*
X109141Y-228203D02*
G54D55*
D03*
X109134Y-206900D02*
G54D55*
D03*
G54D49*
X109141Y-228203D02*
X138906Y-228203D01*
X149622Y-217488D01*
G54D49*
X109134Y-206900D02*
X117603Y-206900D01*
X118666Y-207962D01*
X125797Y-207962D01*
X125822Y-207988D01*
G54D49*
X98798Y-96864D02*
X88826Y-96864D01*
X86074Y-99616D01*
X86074Y-159099D01*
X91281Y-164306D01*
X99591Y-164306D01*
G54D49*
X84931Y-188888D02*
X84931Y-176213D01*
X79772Y-171053D01*
X79772Y-90884D01*
X86519Y-84138D01*
X98771Y-84138D01*
X98798Y-84164D01*
X31736Y-163104D02*
G54D50*
D03*
X31736Y-179003D02*
G54D50*
D03*
X48816Y-163116D02*
G54D50*
D03*
X48816Y-179015D02*
G54D50*
D03*
G54D49*
X48816Y-179015D02*
X55538Y-179015D01*
X67072Y-167481D01*
X67072Y-101600D01*
X62336Y-96864D01*
X47998Y-96864D01*
G54D49*
X116681Y-80962D02*
X116681Y-71438D01*
G54D40*
X98798Y-71464D02*
X122264Y-71464D01*
X136525Y-85725D01*
X136525Y-145256D01*
X227012Y-32544D02*
G54D59*
D03*
X201612Y-32544D02*
G54D59*
D03*
X176212Y-32544D02*
G54D59*
D03*
X201612Y-57944D02*
G54D59*
D03*
X176212Y-57944D02*
G54D59*
D03*
X150812Y-57944D02*
G54D59*
D03*
X227012Y-83344D02*
G54D60*
D03*
G54D49*
X22598Y-134964D02*
X47998Y-134964D01*
G54D49*
X33314Y-147664D02*
X47998Y-147664D01*
G36*
X160512Y-79344D02*
X166512Y-79344D01*
X166513Y-87344D01*
X160513Y-87344D01*
X160512Y-79344D01*
G37*
X179412Y-83344D02*
G54D54*
D03*
X194435Y-106037D02*
G54D61*
D03*
X159435Y-106037D02*
G54D61*
D03*
G54D49*
X194435Y-106037D02*
X204462Y-106037D01*
X208756Y-110331D01*
X252016Y-110331D01*
X258366Y-116681D01*
X258366Y-123428D01*
X261541Y-126603D01*
X279362Y-126603D01*
X279400Y-126566D01*
G54D40*
X279400Y-169466D02*
X255153Y-145256D01*
X136525Y-145256D01*
G54D57*
X220266Y-173434D02*
X219869Y-173434D01*
X219869Y-158750D01*
X251619Y-158750D01*
X255191Y-162322D01*
X255191Y-181372D01*
X248841Y-187722D01*
X240915Y-187732D01*
G54D57*
X248841Y-187722D02*
X248834Y-201741D01*
G54D49*
X248841Y-223044D02*
X261938Y-223044D01*
X272653Y-212328D01*
X279400Y-212328D01*
X279400Y-196993D01*
G54D49*
X227806Y-223441D02*
X227806Y-231378D01*
X231378Y-234950D01*
X261144Y-234950D01*
X267494Y-228600D01*
X279003Y-228600D01*
X279400Y-228997D01*
G54D62*
X80169Y-284719D02*
X80169Y-294719D01*
G54D62*
X64691Y-286306D02*
X64691Y-296306D01*
X202410Y-279800D02*
G54D56*
D03*
X200025Y-250031D02*
G54D56*
D03*
X140100Y-287340D02*
G54D56*
D03*
G54D49*
X115515Y-175766D02*
X119856Y-175766D01*
X127397Y-183306D01*
G54D57*
X127397Y-164306D02*
X115491Y-164306D01*
X92869Y-219075D02*
G54D63*
D03*
X60865Y-219075D02*
G54D63*
D03*
G54D49*
X125822Y-217488D02*
X103187Y-217488D01*
X101600Y-219075D01*
X92869Y-219075D01*
X31750Y-227409D02*
G54D45*
D03*
X31750Y-195405D02*
G54D45*
D03*
G54D40*
X31750Y-245269D02*
X31750Y-227409D01*
G54D64*
X31750Y-195405D02*
X41418Y-195405D01*
X42862Y-196850D01*
X117078Y-196850D01*
X118666Y-198438D01*
X125809Y-198438D01*
X61516Y-188912D02*
G54D50*
D03*
X61516Y-204812D02*
G54D50*
D03*
X48816Y-188912D02*
G54D50*
D03*
X48816Y-204812D02*
G54D50*
D03*
G54D49*
X61516Y-188912D02*
X61516Y-182959D01*
X73422Y-171053D01*
X73422Y-80962D01*
X82947Y-71438D01*
X98771Y-71438D01*
X98798Y-71464D01*
G54D49*
X60722Y-219075D02*
X60722Y-209947D01*
X61516Y-208756D01*
X61516Y-204788D01*
G54D49*
X31750Y-195405D02*
X31736Y-179003D01*
G54D57*
X48816Y-188912D02*
X48816Y-179015D01*
G54D49*
X48816Y-163116D02*
X31748Y-163116D01*
X31736Y-163104D01*
G54D49*
X48816Y-204812D02*
X48816Y-213122D01*
X37703Y-224234D01*
X22598Y-134964D02*
G54D65*
D03*
X33314Y-147664D02*
G54D65*
D03*
G54D49*
X98798Y-147664D02*
X113482Y-147664D01*
X113482Y-147664D02*
G54D65*
D03*
X116681Y-109538D02*
G54D65*
D03*
G54D49*
X163512Y-83344D02*
X144462Y-83344D01*
X124222Y-63103D01*
X69056Y-63103D01*
X61516Y-70644D01*
X61516Y-81756D01*
X59134Y-84138D01*
X48025Y-84138D01*
X47998Y-84164D01*
X191294Y-165497D02*
G54D45*
D03*
X191294Y-133493D02*
G54D45*
D03*
G54D49*
X173434Y-213122D02*
X181372Y-205184D01*
X181372Y-177403D01*
X175816Y-171847D01*
X175816Y-159544D01*
X180975Y-154384D01*
X203200Y-154384D01*
X207169Y-158353D01*
X207169Y-173325D01*
X207381Y-173537D01*
G54D49*
X191294Y-165497D02*
X191294Y-194866D01*
X198438Y-202009D01*
X227672Y-202009D01*
X227800Y-202138D01*
G54D40*
X167481Y-184097D02*
X159887Y-184097D01*
X149597Y-173806D01*
G54D40*
X149622Y-198488D02*
X161478Y-198488D01*
X167481Y-192484D01*
X167481Y-184097D01*
G54D49*
X191294Y-133350D02*
X200422Y-133350D01*
X203597Y-136525D01*
X216297Y-136525D01*
X220266Y-132556D01*
X220266Y-122634D01*
X94853Y-52388D02*
G54D53*
D03*
X113853Y-52388D02*
G54D53*
D03*
X104353Y-30187D02*
G54D53*
D03*
X43259Y-52388D02*
G54D53*
D03*
X62259Y-52388D02*
G54D53*
D03*
X52759Y-30187D02*
G54D53*
D03*
X150813Y-75803D02*
G54D50*
D03*
X150812Y-91702D02*
G54D50*
D03*
G54D49*
X150813Y-75803D02*
X150812Y-57944D01*
X129381Y-36512D02*
G54D50*
D03*
X129381Y-52412D02*
G54D50*
D03*
X78581Y-36512D02*
G54D50*
D03*
X78581Y-52412D02*
G54D50*
D03*
G54D49*
X129381Y-52412D02*
X113877Y-52412D01*
X113853Y-52388D01*
X94853Y-52388D01*
G54D49*
X43259Y-52388D02*
X62259Y-52388D01*
G54D49*
X32147Y-71438D02*
X32147Y-63500D01*
X43259Y-52388D01*
X23019Y-36512D02*
G54D50*
D03*
X23019Y-52412D02*
G54D50*
D03*
G54D49*
X52759Y-30187D02*
X30534Y-30187D01*
X25400Y-35322D01*
X24209Y-35322D01*
X23019Y-36512D01*
G54D49*
X23019Y-52412D02*
X23019Y-61516D01*
X18653Y-65881D01*
X18653Y-107604D01*
X33314Y-122264D01*
X47998Y-122264D01*
G54D49*
X62259Y-52388D02*
X94853Y-52388D01*
G54D49*
X52759Y-30187D02*
X72256Y-30187D01*
X78581Y-36512D01*
G54D49*
X104353Y-30187D02*
X121866Y-30187D01*
X127000Y-35322D01*
X128191Y-35322D01*
X129381Y-36512D01*
G54D49*
X129381Y-36512D02*
X145256Y-36512D01*
X150812Y-42069D01*
X150812Y-57944D01*
G54D49*
X78581Y-36512D02*
X79772Y-36512D01*
X86122Y-30162D01*
X86122Y-23019D01*
X89297Y-19844D01*
X144066Y-19844D01*
X156766Y-32544D01*
X176212Y-32544D01*
G36*
X125587Y-118238D02*
X131587Y-118237D01*
X131588Y-126237D01*
X125588Y-126238D01*
X125587Y-118238D01*
G37*
X144487Y-122238D02*
G54D54*
D03*
G36*
X125587Y-130938D02*
X131587Y-130937D01*
X131588Y-138937D01*
X125588Y-138938D01*
X125587Y-130938D01*
G37*
X144487Y-134938D02*
G54D54*
D03*
G54D49*
X98798Y-134964D02*
X128561Y-134964D01*
X128588Y-134938D01*
X161925Y-156766D02*
G54D45*
D03*
X161925Y-124762D02*
G54D45*
D03*
G54D49*
X161925Y-156766D02*
X134938Y-156766D01*
X127397Y-164306D01*
G54D49*
X161925Y-124762D02*
X180435Y-124762D01*
X194072Y-111125D01*
G54D49*
X98798Y-122264D02*
X128561Y-122264D01*
X128588Y-122238D01*
G54D49*
X150812Y-91702D02*
X150812Y-105966D01*
X159364Y-105966D01*
X159435Y-106037D01*
G54D49*
X144487Y-122238D02*
X144487Y-112292D01*
X150812Y-105966D01*
G54D49*
X144487Y-134938D02*
X150813Y-134938D01*
X152797Y-136922D01*
X176609Y-136922D01*
X179784Y-133747D01*
X191040Y-133747D01*
X191294Y-133493D01*
X247239Y-65472D02*
G54D50*
D03*
X247239Y-81371D02*
G54D50*
D03*
X290550Y-76200D02*
G54D66*
D03*
X290550Y-82500D02*
G54D66*
D03*
X290550Y-88900D02*
G54D66*
D03*
X273050Y-76200D02*
G54D66*
D03*
X273050Y-82500D02*
G54D66*
D03*
X273050Y-88900D02*
G54D66*
D03*
X247253Y-90884D02*
G54D54*
D03*
X263152Y-90885D02*
G54D54*
D03*
G54D49*
X273050Y-88900D02*
X281781Y-88900D01*
G54D49*
X290550Y-76200D02*
X281781Y-76200D01*
X281781Y-88900D01*
G54D49*
X195659Y-83344D02*
X179412Y-83344D01*
G54D49*
X176213Y-32544D02*
X188913Y-45244D01*
X214312Y-45244D01*
G36*
X192659Y-79344D02*
X198659Y-79344D01*
X198659Y-87344D01*
X192659Y-87344D01*
X192659Y-79344D01*
G37*
X211558Y-83344D02*
G54D54*
D03*
G54D49*
X211558Y-83344D02*
X227012Y-83344D01*
G54D49*
X247253Y-90884D02*
X247253Y-81385D01*
X247239Y-81371D01*
G54D49*
X273050Y-82500D02*
X256728Y-82500D01*
X255588Y-81359D01*
X247251Y-81359D01*
X247239Y-81371D01*
G54D49*
X273050Y-88900D02*
X271066Y-88900D01*
X269081Y-90884D01*
X263152Y-90885D01*
G54D49*
X290550Y-82500D02*
X290550Y-88900D01*
G54D49*
X195659Y-83344D02*
X195659Y-84534D01*
X213122Y-101997D01*
X286147Y-101997D01*
X290512Y-97631D01*
X290512Y-88938D01*
X290550Y-88900D01*
G54D49*
X227012Y-83344D02*
X236934Y-73422D01*
X257572Y-73422D01*
X260350Y-76200D01*
X273050Y-76200D01*
G54D49*
X247239Y-65472D02*
X234541Y-65472D01*
X214312Y-45244D01*
G54D49*
X290550Y-76200D02*
X299244Y-76200D01*
X302022Y-78978D01*
X302022Y-106362D01*
X303609Y-107950D01*
X328612Y-107950D01*
%LNAUGENFREISTANZEN*%
%LPC*%
X276225Y-274638D02*
G54D40*
D03*
X276225Y-45244D02*
G54D40*
D03*
X321072Y-126603D02*
G54D16*
D03*
X321072Y-149225D02*
G54D16*
D03*
X321072Y-171450D02*
G54D16*
D03*
X321070Y-194070D02*
G54D16*
D03*
X345281Y-137716D02*
G54D67*
D03*
X345281Y-182562D02*
G54D67*
D03*
X31750Y-268684D02*
G54D68*
D03*
X31750Y-245269D02*
G54D68*
D03*
X207170Y-187720D02*
G54D67*
D03*
X32147Y-71438D02*
G54D67*
D03*
X227012Y-32544D02*
G54D67*
D03*
X201612Y-32544D02*
G54D67*
D03*
X176212Y-32544D02*
G54D67*
D03*
X201612Y-57944D02*
G54D67*
D03*
X176212Y-57944D02*
G54D67*
D03*
X150812Y-57944D02*
G54D67*
D03*
X227012Y-83344D02*
G54D67*
D03*
X80169Y-289719D02*
G54D67*
D03*
X64691Y-291306D02*
G54D67*
D03*
X202410Y-279800D02*
G54D67*
D03*
X200025Y-250031D02*
G54D67*
D03*
X140100Y-287340D02*
G54D67*
D03*
X22598Y-134964D02*
G54D67*
D03*
X33314Y-147664D02*
G54D67*
D03*
X113482Y-147664D02*
G54D67*
D03*
X116681Y-109538D02*
G54D67*
D03*
M02*
